# Blender 5.1.2
# www.blender.org
mtllib solarpanel.mtl
o SolarPanel_Panel.003_Placeable_0
v 9.000000 0.399999 5.999999
v 9.000000 0.599999 5.999999
v 9.000001 0.599999 6.999999
v 9.000001 0.399999 6.999999
v -8.600000 -0.000001 6.000000
v -8.000000 -0.000001 6.000000
v -8.000000 -0.000001 6.599999
v -8.599999 -0.000001 6.599999
v 8.000000 -0.000001 5.999999
v 8.000001 -0.000001 6.599998
v -8.000000 0.399999 7.000000
v -8.000000 0.599999 7.000000
v -8.999999 0.599999 7.000000
v -8.999999 0.399999 7.000000
v 8.600000 -0.000001 5.999999
v 8.600001 -0.000001 6.599998
v 8.000001 0.599999 6.999999
v 8.000001 0.399999 6.999999
v 9.000001 0.399999 6.999999
v 9.000001 0.599999 6.999999
v -9.000000 0.599999 6.000000
v -9.000000 0.399999 6.000000
v -8.999999 0.399999 7.000000
v -8.999999 0.599999 7.000000
v -8.000000 0.399999 7.000000
v 8.000001 0.399999 6.999999
v 8.000001 0.599999 6.999999
v -8.000000 0.599999 7.000000
v 9.000000 0.599999 5.999999
v 9.000000 0.399999 5.999999
v 9.000000 0.400001 -6.000000
v 9.000000 0.600001 -6.000000
v 9.000000 0.400001 -6.000000
v 8.999999 0.400001 -7.000000
v 8.999999 0.600001 -7.000000
v 9.000000 0.600001 -6.000000
v -8.000000 0.000001 -5.999999
v 8.000000 0.000001 -6.000000
v -9.000000 0.399999 6.000000
v -9.000000 0.599999 6.000000
v -9.000000 0.600001 -5.999999
v -9.000000 0.400001 -5.999999
v -8.600000 0.000001 -5.999999
v -8.600001 0.000001 -6.599998
v -8.000001 0.000001 -6.599998
v 8.000000 0.000001 -6.599999
v -8.000001 0.400001 -6.999999
v -9.000001 0.400001 -6.999999
v -9.000001 0.600001 -6.999999
v -8.000001 0.600001 -6.999999
v 8.599999 0.000001 -6.599999
v 8.600000 0.000001 -6.000000
v 8.000000 0.600001 -7.000000
v 8.999999 0.600001 -7.000000
v 8.999999 0.400001 -7.000000
v 8.000000 0.400001 -7.000000
v -9.000000 0.600001 -5.999999
v -9.000001 0.600001 -6.999999
v -9.000001 0.400001 -6.999999
v -9.000000 0.400001 -5.999999
v -8.000001 0.600001 -6.999999
v 8.000000 0.600001 -7.000000
v 8.000000 0.400001 -7.000000
v -8.000001 0.400001 -6.999999
v -1.700000 0.999999 2.100000
v -0.300000 0.999999 2.100000
v -0.300000 1.000000 1.900000
v -1.700000 1.000000 1.900000
v 0.100000 1.000000 1.700000
v 0.100000 1.000000 0.300000
v -0.100000 1.000000 0.300000
v -0.100000 1.000000 1.700000
v -0.300000 1.000000 -0.100000
v -1.700000 1.000000 -0.100000
v -1.700000 1.000000 0.100000
v -0.300000 1.000000 0.100000
v -2.100000 1.000000 0.300000
v -2.100000 1.000000 1.700000
v -1.900000 1.000000 1.700000
v -1.900000 1.000000 0.300000
v -3.700000 0.999999 2.100000
v -2.300000 0.999999 2.100000
v -2.300000 1.000000 1.900000
v -3.700000 1.000000 1.900000
v -2.300000 1.000000 -0.100000
v -3.700000 1.000000 -0.100000
v -3.700000 1.000000 0.100000
v -2.300000 1.000000 0.100000
v -4.100000 1.000000 0.300001
v -4.100000 1.000000 1.700000
v -3.900000 1.000000 1.700000
v -3.900000 1.000000 0.300001
v 0.300000 0.999999 2.100000
v 1.700000 0.999999 2.100000
v 1.700000 1.000000 1.900000
v 0.300000 1.000000 1.900000
v 2.100000 1.000000 1.700000
v 2.100000 1.000000 0.300000
v 1.900000 1.000000 0.300000
v 1.900000 1.000000 1.700000
v 1.700000 1.000000 -0.100000
v 0.300000 1.000000 -0.100000
v 0.300000 1.000000 0.100000
v 1.700000 1.000000 0.100000
v 2.100000 0.999999 3.699999
v 2.100000 0.999999 2.300000
v 1.900000 0.999999 2.300000
v 1.900000 0.999999 3.700000
v -0.100000 0.999999 2.300000
v -0.100000 0.999999 3.700000
v 0.100000 0.999999 3.700000
v 0.100000 0.999999 2.300000
v 0.300000 0.999999 4.099999
v 1.700000 0.999999 4.099999
v 1.700000 0.999999 3.900000
v 0.300000 0.999999 3.900000
v -2.100000 0.999999 2.300000
v -2.100000 0.999999 3.700000
v -1.900000 0.999999 3.700000
v -1.900000 0.999999 2.300000
v -1.700000 0.999999 4.099999
v -0.300000 0.999999 4.099999
v -0.300000 0.999999 3.900000
v -1.700000 0.999999 3.900000
v 3.700000 1.000000 -0.100000
v 2.300000 1.000000 -0.100000
v 2.300000 1.000000 0.100000
v 3.700000 1.000000 0.100000
v 2.300000 0.999999 2.100000
v 3.700000 0.999999 2.100000
v 3.700000 1.000000 1.900000
v 2.300000 1.000000 1.900000
v 4.100000 1.000000 1.700000
v 4.100000 1.000000 0.300000
v 3.900000 1.000000 0.300000
v 3.900000 1.000000 1.700000
v 4.100000 0.999999 3.699999
v 4.100000 0.999999 2.300000
v 3.900000 0.999999 2.300000
v 3.900000 0.999999 3.699999
v 2.300000 0.999999 4.099999
v 3.700000 0.999999 4.099999
v 3.700000 0.999999 3.900000
v 2.300000 0.999999 3.900000
v -4.100000 0.999999 2.300000
v -4.099999 0.999999 3.700000
v -3.900000 0.999999 3.700000
v -3.900000 0.999999 2.300000
v -3.700000 0.999999 4.100000
v -2.300000 0.999999 4.099999
v -2.300000 0.999999 3.900000
v -3.700000 0.999999 3.900000
v -5.700000 0.999999 2.100000
v -4.300000 0.999999 2.100000
v -4.300000 1.000000 1.900000
v -5.700000 1.000000 1.900000
v -4.300000 1.000000 -0.099999
v -5.700000 1.000000 -0.099999
v -5.700000 1.000000 0.100001
v -4.300000 1.000000 0.100001
v -6.100000 1.000000 0.300001
v -6.100000 1.000000 1.700000
v -5.900000 1.000000 1.700000
v -5.900000 1.000000 0.300001
v -6.100000 0.999999 2.300001
v -6.099999 0.999999 3.700000
v -5.900000 0.999999 3.700000
v -5.900000 0.999999 2.300001
v -5.699999 0.999999 4.100000
v -4.300000 0.999999 4.100000
v -4.300000 0.999999 3.900000
v -5.699999 0.999999 3.900000
v 5.700000 1.000000 -0.100000
v 4.300000 1.000000 -0.100000
v 4.300000 1.000000 0.100000
v 5.700000 1.000000 0.100000
v 4.300000 0.999999 2.100000
v 5.700000 0.999999 2.099999
v 5.700000 1.000000 1.899999
v 4.300000 1.000000 1.900000
v 6.100000 1.000000 1.699999
v 6.100000 1.000000 0.300000
v 5.900000 1.000000 0.300000
v 5.900000 1.000000 1.699999
v 6.100000 0.999999 3.699999
v 6.100000 0.999999 2.300000
v 5.900000 0.999999 2.300000
v 5.900001 0.999999 3.699999
v 4.300001 0.999999 4.099999
v 5.700000 0.999999 4.099999
v 5.700000 0.999999 3.899999
v 4.300001 0.999999 3.900000
v 7.700000 1.000000 -0.100000
v 6.300000 1.000000 -0.100000
v 6.300000 1.000000 0.100000
v 7.700000 1.000000 0.100000
v 6.300000 0.999999 2.099999
v 7.700000 0.999999 2.099999
v 7.700000 1.000000 1.899999
v 6.300000 1.000000 1.899999
v 8.100000 1.000000 1.700000
v 8.100000 1.000000 0.299999
v 7.900000 1.000000 0.300000
v 7.900000 1.000000 1.699999
v 8.100000 0.999999 3.699999
v 8.100000 0.999999 2.299999
v 7.900000 0.999999 2.299999
v 7.900001 0.999999 3.699999
v 6.300001 0.999999 4.099999
v 7.700000 0.999999 4.099999
v 7.700000 0.999999 3.899999
v 6.300001 0.999999 3.899999
v -7.700000 0.999999 2.100000
v -6.300000 0.999999 2.100000
v -6.300000 1.000000 1.900000
v -7.700000 1.000000 1.900001
v -6.300000 1.000000 -0.099999
v -7.700000 1.000000 -0.099999
v -7.700000 1.000000 0.100001
v -6.300000 1.000000 0.100001
v -8.100000 1.000000 0.300000
v -8.100000 1.000000 1.700001
v -7.900000 1.000000 1.700001
v -7.900000 1.000000 0.300001
v -8.100000 0.999999 2.300000
v -8.100000 0.999999 3.700001
v -7.900000 0.999999 3.700000
v -7.900000 0.999999 2.300001
v -7.699999 0.999999 4.100000
v -6.300000 0.999999 4.100000
v -6.300000 0.999999 3.900000
v -7.699999 0.999999 3.900000
v 2.100000 0.999999 5.699999
v 2.100000 0.999999 4.300000
v 1.900000 0.999999 4.300000
v 1.900000 0.999999 5.699999
v -0.100000 0.999999 4.300000
v -0.100000 0.999999 5.699999
v 0.100000 0.999999 5.699999
v 0.100000 0.999999 4.300000
v 0.300001 0.999999 6.099999
v 1.700000 0.999999 6.099999
v 1.700000 0.999999 5.900000
v 0.300001 0.999999 5.900000
v 4.100000 0.999999 5.699999
v 4.100000 0.999999 4.299999
v 3.900000 0.999999 4.299999
v 3.900001 0.999999 5.699999
v 2.300001 0.999999 6.099999
v 3.700000 0.999999 6.099998
v 3.700000 0.999999 5.899999
v 2.300001 0.999999 5.900000
v -2.100000 0.999999 4.300000
v -2.099999 0.999999 5.699999
v -1.899999 0.999999 5.699999
v -1.900000 0.999999 4.300000
v -1.699999 0.999999 6.099999
v -0.300000 0.999999 6.099999
v -0.300000 0.999999 5.900000
v -1.699999 0.999999 5.900000
v -4.099999 0.999999 4.300000
v -4.099999 0.999999 5.700000
v -3.900000 0.999999 5.700000
v -3.900000 0.999999 4.300000
v -3.699999 0.999999 6.099999
v -2.300000 0.999999 6.099999
v -2.300000 0.999999 5.900000
v -3.699999 0.999999 5.900000
v -6.099999 0.999999 4.300000
v -6.099999 0.999999 5.700000
v -5.900000 0.999999 5.700000
v -5.900000 0.999999 4.300000
v -5.699999 0.999999 6.099999
v -4.300000 0.999999 6.099999
v -4.300000 0.999999 5.900000
v -5.699999 0.999999 5.900000
v 6.100000 0.999999 5.699999
v 6.100000 0.999999 4.299999
v 5.900001 0.999999 4.299999
v 5.900001 0.999999 5.699999
v 4.300001 0.999999 6.099998
v 5.700000 0.999999 6.099998
v 5.700000 0.999999 5.899999
v 4.300001 0.999999 5.899999
v 8.100000 0.999999 5.699999
v 8.100000 0.999999 4.299999
v 7.900001 0.999999 4.299999
v 7.900001 0.999999 5.699999
v 6.300001 0.999999 6.099998
v 7.700000 0.999999 6.099998
v 7.700000 0.999999 5.899999
v 6.300001 0.999999 5.899999
v -8.100000 0.999999 4.300000
v -8.100000 0.999999 5.700000
v -7.900000 0.999999 5.700000
v -7.900000 0.999999 4.300000
v -7.699999 0.999999 6.099999
v -6.300000 0.999999 6.099999
v -6.300000 0.999999 5.900000
v -7.699999 0.999999 5.900000
v -1.700000 1.000000 -1.899999
v -0.300000 1.000000 -1.899999
v -0.300000 1.000000 -2.099999
v -1.700000 1.000000 -2.099999
v -0.100000 1.000000 -1.700000
v -0.100000 1.000000 -0.300000
v 0.100000 1.000000 -0.300000
v 0.100000 1.000000 -1.700000
v -1.900000 1.000000 -0.300000
v -1.900000 1.000000 -1.699999
v -2.100000 1.000000 -1.699999
v -2.100000 1.000000 -0.300000
v -3.700000 1.000000 -1.899999
v -2.300000 1.000000 -1.899999
v -2.300000 1.000000 -2.099999
v -3.700000 1.000000 -2.099999
v -3.900000 1.000000 -0.300000
v -3.900000 1.000000 -1.699999
v -4.100000 1.000000 -1.699999
v -4.100000 1.000000 -0.300000
v 0.300000 1.000000 -1.899999
v 1.700000 1.000000 -1.900000
v 1.700000 1.000000 -2.100000
v 0.300000 1.000000 -2.099999
v 1.900000 1.000000 -1.700000
v 1.900000 1.000000 -0.300000
v 2.100000 1.000000 -0.300000
v 2.100000 1.000000 -1.700000
v 1.900000 1.000001 -3.699999
v 1.900000 1.000000 -2.300000
v 2.100000 1.000000 -2.300000
v 2.100000 1.000001 -3.699999
v 0.100000 1.000000 -2.300000
v 0.100000 1.000001 -3.699999
v -0.100000 1.000001 -3.699999
v -0.100000 1.000000 -2.300000
v 0.300000 1.000001 -3.899999
v 1.700000 1.000001 -3.900000
v 1.700000 1.000001 -4.099999
v 0.300000 1.000001 -4.099999
v -1.900000 1.000000 -2.299999
v -1.900000 1.000001 -3.699999
v -2.100000 1.000001 -3.699999
v -2.100000 1.000000 -2.299999
v -1.700000 1.000001 -3.899999
v -0.300000 1.000001 -3.899999
v -0.300000 1.000001 -4.099999
v -1.700000 1.000001 -4.099999
v 2.300000 1.000000 -1.900000
v 3.700000 1.000000 -1.900000
v 3.700000 1.000000 -2.100000
v 2.300000 1.000000 -2.100000
v 3.900000 1.000000 -1.700000
v 3.900000 1.000000 -0.300000
v 4.100000 1.000000 -0.300000
v 4.100000 1.000000 -1.700000
v 3.900000 1.000001 -3.699999
v 3.900000 1.000000 -2.300000
v 4.100000 1.000000 -2.300000
v 4.099999 1.000001 -3.699999
v 2.300000 1.000001 -3.900000
v 3.700000 1.000001 -3.900000
v 3.700000 1.000001 -4.100000
v 2.300000 1.000001 -4.099999
v -3.900000 1.000000 -2.299999
v -3.900000 1.000001 -3.699999
v -4.100000 1.000001 -3.699999
v -4.100000 1.000000 -2.299999
v -3.700000 1.000001 -3.899999
v -2.300000 1.000001 -3.899999
v -2.300000 1.000001 -4.099999
v -3.700000 1.000001 -4.099999
v -5.700000 1.000000 -1.899999
v -4.300000 1.000000 -1.899999
v -4.300000 1.000000 -2.099999
v -5.700000 1.000000 -2.099999
v -5.900000 1.000000 -0.299999
v -5.900000 1.000000 -1.699999
v -6.100000 1.000000 -1.699999
v -6.100000 1.000000 -0.299999
v -5.900000 1.000000 -2.299999
v -5.900001 1.000001 -3.699999
v -6.100000 1.000001 -3.699999
v -6.100000 1.000000 -2.299999
v -5.700000 1.000001 -3.899999
v -4.300001 1.000001 -3.899999
v -4.300001 1.000001 -4.099999
v -5.700000 1.000001 -4.099999
v 4.300000 1.000000 -1.900000
v 5.700000 1.000000 -1.900000
v 5.700000 1.000000 -2.100000
v 4.300000 1.000000 -2.100000
v 5.900000 1.000000 -1.700000
v 5.900000 1.000000 -0.300000
v 6.100000 1.000000 -0.300000
v 6.100000 1.000000 -1.700000
v 5.900000 1.000001 -3.700000
v 5.900000 1.000000 -2.300000
v 6.100000 1.000000 -2.300000
v 6.099999 1.000001 -3.700000
v 4.300000 1.000001 -3.900000
v 5.699999 1.000001 -3.900000
v 5.699999 1.000001 -4.100000
v 4.300000 1.000001 -4.100000
v 6.300000 1.000000 -1.900000
v 7.700000 1.000000 -1.900000
v 7.700000 1.000000 -2.100000
v 6.300000 1.000000 -2.100000
v 7.900000 1.000000 -1.700000
v 7.900000 1.000000 -0.300000
v 8.100000 1.000000 -0.300000
v 8.100000 1.000000 -1.700001
v 7.900000 1.000001 -3.700000
v 7.900000 1.000000 -2.300000
v 8.100000 1.000000 -2.300000
v 8.100000 1.000001 -3.700001
v 6.300000 1.000001 -3.900000
v 7.699999 1.000001 -3.900000
v 7.699999 1.000001 -4.100000
v 6.300000 1.000001 -4.100000
v -7.700000 1.000000 -1.899999
v -6.300000 1.000000 -1.899999
v -6.300000 1.000000 -2.099999
v -7.700000 1.000000 -2.099999
v -7.900000 1.000000 -0.299999
v -7.900000 1.000000 -1.699999
v -8.100000 1.000000 -1.699999
v -8.100000 1.000000 -0.299999
v -7.900000 1.000000 -2.299999
v -7.900001 1.000001 -3.699998
v -8.100000 1.000001 -3.699999
v -8.100000 1.000000 -2.299998
v -7.700000 1.000001 -3.899999
v -6.300001 1.000001 -3.899999
v -6.300001 1.000001 -4.099999
v -7.700000 1.000001 -4.099999
v 1.899999 1.000001 -5.699999
v 1.900000 1.000001 -4.300000
v 2.100000 1.000001 -4.300000
v 2.099999 1.000001 -5.699999
v 0.100000 1.000001 -4.300000
v 0.100000 1.000001 -5.699999
v -0.100000 1.000001 -5.699999
v -0.100000 1.000001 -4.300000
v 0.300000 1.000001 -5.900000
v 1.699999 1.000001 -5.900000
v 1.699999 1.000001 -6.099999
v 0.300000 1.000001 -6.099999
v 3.900000 1.000001 -5.700000
v 3.900000 1.000001 -4.300000
v 4.099999 1.000001 -4.300000
v 4.099999 1.000001 -5.700000
v 2.300000 1.000001 -5.900000
v 3.699999 1.000001 -5.900000
v 3.699999 1.000001 -6.099999
v 2.300000 1.000001 -6.099999
v -1.900000 1.000001 -4.300000
v -1.900000 1.000001 -5.699999
v -2.100000 1.000001 -5.699999
v -2.100000 1.000001 -4.300000
v -1.700000 1.000001 -5.900000
v -0.300001 1.000001 -5.900000
v -0.300001 1.000001 -6.099999
v -1.700000 1.000001 -6.099999
v -3.900000 1.000001 -4.299999
v -3.900001 1.000001 -5.699999
v -4.100000 1.000001 -5.699999
v -4.100000 1.000001 -4.299999
v -3.700000 1.000001 -5.899999
v -2.300001 1.000001 -5.900000
v -2.300001 1.000001 -6.099999
v -3.700000 1.000001 -6.099998
v -5.900001 1.000001 -4.299999
v -5.900001 1.000001 -5.699999
v -6.100000 1.000001 -5.699999
v -6.100000 1.000001 -4.299999
v -5.700000 1.000001 -5.899999
v -4.300001 1.000001 -5.899999
v -4.300001 1.000001 -6.099998
v -5.700000 1.000001 -6.099998
v 5.900000 1.000001 -5.700000
v 5.900000 1.000001 -4.300000
v 6.099999 1.000001 -4.300000
v 6.099999 1.000001 -5.700000
v 4.300000 1.000001 -5.900000
v 5.699999 1.000001 -5.900000
v 5.699999 1.000001 -6.099999
v 4.300000 1.000001 -6.099999
v 7.900000 1.000001 -5.700000
v 7.900000 1.000001 -4.300000
v 8.100000 1.000001 -4.300000
v 8.100000 1.000001 -5.700000
v 6.300000 1.000001 -5.900000
v 7.699999 1.000001 -5.900000
v 7.699999 1.000001 -6.099999
v 6.300000 1.000001 -6.099999
v -7.900001 1.000001 -4.299999
v -7.900001 1.000001 -5.699999
v -8.100000 1.000001 -5.699999
v -8.100000 1.000001 -4.299999
v -7.700000 1.000001 -5.899999
v -6.300001 1.000001 -5.899999
v -6.300001 1.000001 -6.099998
v -7.700000 1.000001 -6.099998
v -8.599999 0.999999 6.599999
v -8.600000 0.999999 6.000000
v -9.000000 0.599999 6.000000
v -8.999999 0.599999 7.000000
v -8.600000 -0.000001 6.000000
v -8.599999 -0.000001 6.599999
v -8.999999 0.399999 7.000000
v -9.000000 0.399999 6.000000
v 9.000000 0.399999 5.999999
v 9.000001 0.399999 6.999999
v 8.600001 -0.000001 6.599998
v 8.600000 -0.000001 5.999999
v -8.000000 0.599999 7.000000
v 8.000001 0.599999 6.999999
v 8.000001 0.999999 6.599998
v -8.000000 0.999999 6.599999
v -8.000000 0.399999 7.000000
v -8.000000 -0.000001 6.599999
v 8.000001 -0.000001 6.599998
v 8.000001 0.399999 6.999999
v 8.000001 0.599999 6.999999
v 9.000001 0.599999 6.999999
v 8.600001 0.999999 6.599998
v 8.000001 0.999999 6.599998
v 9.000001 0.399999 6.999999
v 8.000001 0.399999 6.999999
v 8.000001 -0.000001 6.599998
v 8.600001 -0.000001 6.599998
v -8.999999 0.599999 7.000000
v -8.000000 0.599999 7.000000
v -8.000000 0.999999 6.599999
v -8.599999 0.999999 6.599999
v -8.599999 -0.000001 6.599999
v -8.000000 -0.000001 6.599999
v -8.000000 0.399999 7.000000
v -8.999999 0.399999 7.000000
v 8.600000 0.999999 5.999999
v 8.600001 0.999999 6.599998
v 9.000001 0.599999 6.999999
v 9.000000 0.599999 5.999999
v -9.000000 0.400001 -5.999999
v -8.600000 0.000001 -5.999999
v -8.600000 -0.000001 6.000000
v -9.000000 0.399999 6.000000
v 9.000000 0.600001 -6.000000
v 8.600000 1.000001 -6.000000
v 8.600000 0.999999 5.999999
v 9.000000 0.599999 5.999999
v -9.000000 0.599999 6.000000
v -8.600000 0.999999 6.000000
v -8.600000 1.000001 -5.999999
v -9.000000 0.600001 -5.999999
v 8.600000 0.000001 -6.000000
v 9.000000 0.400001 -6.000000
v 9.000000 0.399999 5.999999
v 8.600000 -0.000001 5.999999
v -9.000001 0.600001 -6.999999
v -9.000000 0.600001 -5.999999
v -8.600000 1.000001 -5.999999
v -8.600001 1.000001 -6.599998
v -9.000000 0.400001 -5.999999
v -9.000001 0.400001 -6.999999
v -8.600001 0.000001 -6.599998
v -8.600000 0.000001 -5.999999
v 8.600000 0.000001 -6.000000
v 8.599999 0.000001 -6.599999
v 8.999999 0.400001 -7.000000
v 9.000000 0.400001 -6.000000
v -8.000001 1.000001 -6.599998
v 8.000000 1.000001 -6.599999
v 8.000000 0.600001 -7.000000
v -8.000001 0.600001 -6.999999
v -8.000001 0.000001 -6.599998
v -8.000001 0.400001 -6.999999
v 8.000000 0.400001 -7.000000
v 8.000000 0.000001 -6.599999
v 8.000000 1.000001 -6.599999
v 8.599999 1.000001 -6.599999
v 8.999999 0.600001 -7.000000
v 8.000000 0.600001 -7.000000
v 8.599999 0.000001 -6.599999
v 8.000000 0.000001 -6.599999
v 8.000000 0.400001 -7.000000
v 8.999999 0.400001 -7.000000
v -8.600001 1.000001 -6.599998
v -8.000001 1.000001 -6.599998
v -8.000001 0.600001 -6.999999
v -9.000001 0.600001 -6.999999
v -9.000001 0.400001 -6.999999
v -8.000001 0.400001 -6.999999
v -8.000001 0.000001 -6.599998
v -8.600001 0.000001 -6.599998
v 9.000000 0.600001 -6.000000
v 8.999999 0.600001 -7.000000
v 8.599999 1.000001 -6.599999
v 8.600000 1.000001 -6.000000
v -4.300000 -0.000001 5.999999
v -4.300000 0.000001 -6.000000
v -4.300000 -0.349999 -6.000000
v -4.300000 -0.350001 5.999999
v -4.300000 -0.349999 -6.000000
v -3.700000 -0.349999 -6.000000
v -3.850000 -0.499999 -5.850000
v -4.150001 -0.499999 -5.850000
v -3.700000 -0.350001 5.999999
v -4.300000 -0.350001 5.999999
v -4.150000 -0.500001 5.849999
v -3.850000 -0.500001 5.849999
v -3.850000 -0.500001 5.849999
v -3.850000 -0.499999 -5.850000
v -3.700000 -0.349999 -6.000000
v -3.700000 -0.350001 5.999999
v -4.300000 -0.350001 5.999999
v -4.300000 -0.349999 -6.000000
v -4.150001 -0.499999 -5.850000
v -4.150000 -0.500001 5.849999
v -3.700000 0.000001 -6.000000
v -3.700000 -0.000001 5.999999
v -3.700000 -0.350001 5.999999
v -3.700000 -0.349999 -6.000000
v -4.150000 -0.500001 5.849999
v -4.150001 -0.499999 -5.850000
v -3.850000 -0.499999 -5.850000
v -3.850000 -0.500001 5.849999
v -4.300000 0.000001 -6.000000
v -3.700000 0.000001 -6.000000
v -3.700000 -0.349999 -6.000000
v -4.300000 -0.349999 -6.000000
v -3.700000 -0.000001 5.999999
v -4.300000 -0.000001 5.999999
v -4.300000 -0.350001 5.999999
v -3.700000 -0.350001 5.999999
v -1.700000 -0.000001 5.999999
v -2.300000 -0.000001 5.999999
v -2.300000 -0.350001 5.999999
v -1.700000 -0.350001 5.999999
v -2.300000 0.000001 -6.000000
v -1.700000 0.000001 -6.000000
v -1.700000 -0.349999 -6.000000
v -2.300000 -0.349999 -6.000000
v -2.150000 -0.500001 5.849999
v -2.150000 -0.499999 -5.850000
v -1.850000 -0.499999 -5.850000
v -1.850000 -0.500001 5.849999
v -1.700000 0.000001 -6.000000
v -1.700000 -0.000001 5.999999
v -1.700000 -0.350001 5.999999
v -1.700000 -0.349999 -6.000000
v -2.300000 -0.350001 5.999999
v -2.300000 -0.349999 -6.000000
v -2.150000 -0.499999 -5.850000
v -2.150000 -0.500001 5.849999
v -1.850000 -0.500001 5.849999
v -1.850000 -0.499999 -5.850000
v -1.700000 -0.349999 -6.000000
v -1.700000 -0.350001 5.999999
v -1.700000 -0.350001 5.999999
v -2.300000 -0.350001 5.999999
v -2.150000 -0.500001 5.849999
v -1.850000 -0.500001 5.849999
v -2.300000 -0.349999 -6.000000
v -1.700000 -0.349999 -6.000000
v -1.850000 -0.499999 -5.850000
v -2.150000 -0.499999 -5.850000
v -2.300000 -0.000001 5.999999
v -2.300000 0.000001 -6.000000
v -2.300000 -0.349999 -6.000000
v -2.300000 -0.350001 5.999999
v 1.700000 -0.000001 5.999999
v 1.700000 0.000001 -6.000000
v 1.700000 -0.349999 -6.000000
v 1.700000 -0.350001 5.999999
v 1.700000 -0.349999 -6.000000
v 2.300000 -0.349999 -6.000000
v 2.150000 -0.499999 -5.850000
v 1.850000 -0.499999 -5.850000
v 2.300000 -0.350001 5.999999
v 1.700000 -0.350001 5.999999
v 1.850000 -0.500001 5.849999
v 2.150000 -0.500001 5.849999
v 2.150000 -0.500001 5.849999
v 2.150000 -0.499999 -5.850000
v 2.300000 -0.349999 -6.000000
v 2.300000 -0.350001 5.999999
v 1.700000 -0.350001 5.999999
v 1.700000 -0.349999 -6.000000
v 1.850000 -0.499999 -5.850000
v 1.850000 -0.500001 5.849999
v 2.300000 0.000001 -6.000000
v 2.300000 -0.000001 5.999999
v 2.300000 -0.350001 5.999999
v 2.300000 -0.349999 -6.000000
v 1.850000 -0.500001 5.849999
v 1.850000 -0.499999 -5.850000
v 2.150000 -0.499999 -5.850000
v 2.150000 -0.500001 5.849999
v 1.700000 0.000001 -6.000000
v 2.300000 0.000001 -6.000000
v 2.300000 -0.349999 -6.000000
v 1.700000 -0.349999 -6.000000
v 2.300000 -0.000001 5.999999
v 1.700000 -0.000001 5.999999
v 1.700000 -0.350001 5.999999
v 2.300000 -0.350001 5.999999
v 0.300000 -0.000001 5.999999
v -0.300000 -0.000001 5.999999
v -0.300000 -0.350001 5.999999
v 0.300000 -0.350001 5.999999
v -0.300000 0.000001 -6.000000
v 0.300000 0.000001 -6.000000
v 0.300000 -0.349999 -6.000000
v -0.300000 -0.349999 -6.000000
v -0.150000 -0.500001 5.849999
v -0.150000 -0.499999 -5.850000
v 0.150000 -0.499999 -5.850000
v 0.150000 -0.500001 5.849999
v 0.300000 0.000001 -6.000000
v 0.300000 -0.000001 5.999999
v 0.300000 -0.350001 5.999999
v 0.300000 -0.349999 -6.000000
v -0.300000 -0.350001 5.999999
v -0.300000 -0.349999 -6.000000
v -0.150000 -0.499999 -5.850000
v -0.150000 -0.500001 5.849999
v 0.150000 -0.500001 5.849999
v 0.150000 -0.499999 -5.850000
v 0.300000 -0.349999 -6.000000
v 0.300000 -0.350001 5.999999
v 0.300000 -0.350001 5.999999
v -0.300000 -0.350001 5.999999
v -0.150000 -0.500001 5.849999
v 0.150000 -0.500001 5.849999
v -0.300000 -0.349999 -6.000000
v 0.300000 -0.349999 -6.000000
v 0.150000 -0.499999 -5.850000
v -0.150000 -0.499999 -5.850000
v -0.300000 -0.000001 5.999999
v -0.300000 0.000001 -6.000000
v -0.300000 -0.349999 -6.000000
v -0.300000 -0.350001 5.999999
v 3.700000 -0.000001 5.999999
v 3.700000 0.000001 -6.000000
v 3.700000 -0.349999 -6.000000
v 3.700000 -0.350001 5.999999
v 3.700000 -0.349999 -6.000000
v 4.300000 -0.349999 -6.000000
v 4.150001 -0.499999 -5.850000
v 3.849999 -0.499999 -5.850000
v 4.300000 -0.350001 5.999999
v 3.700000 -0.350001 5.999999
v 3.850000 -0.500001 5.849999
v 4.150001 -0.500001 5.849999
v 4.150001 -0.500001 5.849999
v 4.150001 -0.499999 -5.850000
v 4.300000 -0.349999 -6.000000
v 4.300000 -0.350001 5.999999
v 3.700000 -0.350001 5.999999
v 3.700000 -0.349999 -6.000000
v 3.849999 -0.499999 -5.850000
v 3.850000 -0.500001 5.849999
v 4.300000 0.000001 -6.000000
v 4.300000 -0.000001 5.999999
v 4.300000 -0.350001 5.999999
v 4.300000 -0.349999 -6.000000
v 3.850000 -0.500001 5.849999
v 3.849999 -0.499999 -5.850000
v 4.150001 -0.499999 -5.850000
v 4.150001 -0.500001 5.849999
v 3.700000 0.000001 -6.000000
v 4.300000 0.000001 -6.000000
v 4.300000 -0.349999 -6.000000
v 3.700000 -0.349999 -6.000000
v 4.300000 -0.000001 5.999999
v 3.700000 -0.000001 5.999999
v 3.700000 -0.350001 5.999999
v 4.300000 -0.350001 5.999999
v 1.900000 1.000000 0.300000
v 1.700000 1.000000 -0.100000
v 1.700000 1.000000 0.100000
v 1.900000 1.000000 -0.300000
v 2.100000 1.000000 0.300000
v 2.100000 1.000000 -0.300000
v 2.300000 1.000000 0.100000
v 2.300000 1.000000 -0.100000
v -4.100000 1.000000 0.300001
v -4.300000 1.000000 -0.099999
v -4.300000 1.000000 0.100001
v -4.100000 1.000000 -0.300000
v -3.900000 1.000000 0.300001
v -3.900000 1.000000 -0.300000
v -3.700000 1.000000 0.100000
v -3.700000 1.000000 -0.100000
v 2.100000 1.000000 1.700000
v 2.300000 1.000000 0.100000
v 2.100000 1.000000 0.300000
v 2.300000 1.000000 1.900000
v 3.700000 1.000000 1.900000
v 3.700000 1.000000 0.100000
v 3.900000 1.000000 0.300000
v 3.900000 1.000000 1.700000
v 5.900000 1.000000 0.300000
v 5.700000 1.000000 -0.100000
v 5.700000 1.000000 0.100000
v 5.900000 1.000000 -0.300000
v 6.100000 1.000000 0.300000
v 6.100000 1.000000 -0.300000
v 6.300000 1.000000 0.100000
v 6.300000 1.000000 -0.100000
v -6.100000 1.000000 0.300001
v -6.300000 1.000000 -0.099999
v -6.300000 1.000000 0.100001
v -6.100000 1.000000 -0.299999
v -5.900000 1.000000 0.300001
v -5.900000 1.000000 -0.299999
v -5.700000 1.000000 0.100001
v -5.700000 1.000000 -0.099999
v 7.900000 1.000000 1.699999
v 8.100000 1.000000 1.700000
v -7.900000 1.000000 0.300001
v -8.100000 1.000000 -0.299999
v -8.100000 1.000000 0.300000
v -7.900000 1.000000 -0.299999
v -7.700000 1.000000 0.100001
v -7.700000 1.000000 -0.099999
v 0.100000 0.999999 3.700000
v 0.300000 0.999999 2.100000
v 0.100000 0.999999 2.300000
v 0.300000 0.999999 3.900000
v 1.700000 0.999999 2.100000
v 1.700000 0.999999 3.900000
v 1.900000 0.999999 2.300000
v 1.900000 0.999999 3.700000
v -2.100000 1.000000 1.700000
v -1.900000 1.000000 1.700000
v 8.000001 0.999999 6.599998
v -8.000000 0.999999 6.400000
v -8.000000 0.999999 6.599999
v -7.699999 0.999999 6.099999
v -6.300000 0.999999 6.099999
v -5.699999 0.999999 6.099999
v -4.300000 0.999999 6.099999
v -3.699999 0.999999 6.099999
v -2.300000 0.999999 6.099999
v -1.699999 0.999999 6.099999
v -0.300000 0.999999 6.099999
v 0.300001 0.999999 6.099999
v 1.700000 0.999999 6.099999
v 2.300001 0.999999 6.099999
v 3.700000 0.999999 6.099998
v 4.300001 0.999999 6.099998
v 5.700000 0.999999 6.099998
v 6.300001 0.999999 6.099998
v 7.700000 0.999999 6.099998
v 8.000001 0.999999 6.399999
v 8.000001 0.999999 6.399999
v 8.400000 0.999999 5.999999
v -8.599999 0.999999 6.599999
v -8.400000 0.999999 6.000000
v -8.600000 0.999999 6.000000
v -8.000000 0.999999 6.599999
v -8.000000 0.999999 6.400000
v 0.100000 0.999999 5.699999
v 0.300000 0.999999 4.099999
v 0.100000 0.999999 4.300000
v 0.300001 0.999999 5.900000
v 1.700000 0.999999 4.099999
v 1.700000 0.999999 5.900000
v 1.900000 0.999999 4.300000
v 1.900000 0.999999 5.699999
v 8.600001 0.999999 6.599998
v 8.000001 0.999999 6.399999
v 8.000001 0.999999 6.599998
v 8.400000 0.999999 5.999999
v 8.600000 0.999999 5.999999
v -1.900000 1.000000 1.700000
v -1.700000 1.000000 0.100000
v -1.900000 1.000000 0.300000
v -1.700000 1.000000 1.900000
v -0.300000 1.000000 0.100000
v -0.300000 1.000000 1.900000
v -0.100000 1.000000 0.300000
v -0.100000 1.000000 1.700000
v 0.100000 1.000000 1.700000
v 0.300000 1.000000 0.100000
v 0.100000 1.000000 0.300000
v 0.300000 1.000000 1.900000
v 1.700000 1.000000 0.100000
v 1.700000 1.000000 1.900000
v 1.900000 1.000000 0.300000
v 1.900000 1.000000 1.700000
v -1.900000 0.999999 3.700000
v -1.700000 0.999999 2.100000
v -1.900000 0.999999 2.300000
v -1.700000 0.999999 3.900000
v -0.300000 0.999999 2.100000
v -0.300000 0.999999 3.900000
v -0.100000 0.999999 2.300000
v -0.100000 0.999999 3.700000
v 2.300000 0.999999 3.900000
v 2.100000 0.999999 2.300000
v 2.100000 0.999999 3.699999
v 2.300000 0.999999 2.100000
v 3.700000 0.999999 3.900000
v 3.700000 0.999999 2.100000
v 3.900000 0.999999 3.699999
v 3.900000 0.999999 2.300000
v -3.700000 0.999999 3.900000
v -3.900000 0.999999 2.300000
v -3.900000 0.999999 3.700000
v -3.700000 0.999999 2.100000
v -2.300000 0.999999 3.900000
v -2.300000 0.999999 2.100000
v -2.100000 0.999999 3.700000
v -2.100000 0.999999 2.300000
v 3.900000 1.000000 0.300000
v 3.700000 1.000000 -0.100000
v 3.700000 1.000000 0.100000
v 3.900000 1.000000 -0.300000
v 4.100000 1.000000 0.300000
v 4.100000 1.000000 -0.300000
v 4.300000 1.000000 0.100000
v 4.300000 1.000000 -0.100000
v -5.700000 1.000000 1.900000
v -5.900000 1.000000 0.300001
v -5.900000 1.000000 1.700000
v -5.700000 1.000000 0.100001
v -4.300000 1.000000 1.900000
v -4.300000 1.000000 0.100001
v -4.100000 1.000000 1.700000
v -4.100000 1.000000 0.300001
v -5.900000 0.999999 3.700000
v -5.700000 0.999999 2.100000
v -5.900000 0.999999 2.300001
v -5.699999 0.999999 3.900000
v -4.300000 0.999999 2.100000
v -4.300000 0.999999 3.900000
v -4.100000 0.999999 2.300000
v -4.099999 0.999999 3.700000
v 4.300000 1.000000 1.900000
v 4.100000 1.000000 0.300000
v 4.100000 1.000000 1.700000
v 4.300000 1.000000 0.100000
v 5.700000 1.000000 1.899999
v 5.700000 1.000000 0.100000
v 5.900000 1.000000 1.699999
v 5.900000 1.000000 0.300000
v 4.100000 0.999999 3.699999
v 4.300000 0.999999 2.100000
v 4.100000 0.999999 2.300000
v 4.300001 0.999999 3.900000
v 5.700000 0.999999 2.099999
v 5.700000 0.999999 3.899999
v 5.900000 0.999999 2.300000
v 5.900001 0.999999 3.699999
v 6.300000 1.000000 1.899999
v 6.100000 1.000000 0.300000
v 6.100000 1.000000 1.699999
v 6.300000 1.000000 0.100000
v 7.700000 1.000000 1.899999
v 7.700000 1.000000 0.100000
v 7.900000 1.000000 1.699999
v 7.900000 1.000000 0.300000
v 6.100000 0.999999 3.699999
v 6.300000 0.999999 2.099999
v 6.100000 0.999999 2.300000
v 6.300001 0.999999 3.899999
v 7.700000 0.999999 2.099999
v 7.700000 0.999999 3.899999
v 7.900000 0.999999 2.299999
v 7.900001 0.999999 3.699999
v -7.700000 1.000000 1.900001
v -7.900000 1.000000 0.300001
v -7.900000 1.000000 1.700001
v -7.700000 1.000000 0.100001
v -6.300000 1.000000 1.900000
v -6.300000 1.000000 0.100001
v -6.100000 1.000000 1.700000
v -6.100000 1.000000 0.300001
v -7.900000 0.999999 3.700000
v -7.700000 0.999999 2.100000
v -7.900000 0.999999 2.300001
v -7.699999 0.999999 3.900000
v -6.300000 0.999999 2.100000
v -6.300000 0.999999 3.900000
v -6.100000 0.999999 2.300001
v -6.099999 0.999999 3.700000
v 2.100000 0.999999 5.699999
v 2.300000 0.999999 4.099999
v 2.100000 0.999999 4.300000
v 2.300001 0.999999 5.900000
v 3.700000 0.999999 4.099999
v 3.700000 0.999999 5.899999
v 3.900000 0.999999 4.299999
v 3.900001 0.999999 5.699999
v -1.899999 0.999999 5.699999
v -1.700000 0.999999 4.099999
v -1.900000 0.999999 4.300000
v -1.699999 0.999999 5.900000
v -0.300000 0.999999 4.099999
v -0.300000 0.999999 5.900000
v -0.100000 0.999999 4.300000
v -0.100000 0.999999 5.699999
v -3.900000 0.999999 5.700000
v -3.700000 0.999999 4.100000
v -3.900000 0.999999 4.300000
v -3.699999 0.999999 5.900000
v -2.300000 0.999999 4.099999
v -2.300000 0.999999 5.900000
v -2.100000 0.999999 4.300000
v -2.099999 0.999999 5.699999
v -5.699999 0.999999 5.900000
v -5.900000 0.999999 4.300000
v -5.900000 0.999999 5.700000
v -5.699999 0.999999 4.100000
v -4.300000 0.999999 5.900000
v -4.300000 0.999999 4.100000
v -4.099999 0.999999 5.700000
v -4.099999 0.999999 4.300000
v 4.300001 0.999999 5.899999
v 4.100000 0.999999 4.299999
v 4.100000 0.999999 5.699999
v 4.300001 0.999999 4.099999
v 5.700000 0.999999 5.899999
v 5.700000 0.999999 4.099999
v 5.900001 0.999999 5.699999
v 5.900001 0.999999 4.299999
v 6.300001 0.999999 5.899999
v 6.100000 0.999999 4.299999
v 6.100000 0.999999 5.699999
v 6.300001 0.999999 4.099999
v 7.700000 0.999999 5.899999
v 7.700000 0.999999 4.099999
v 7.900001 0.999999 5.699999
v 7.900001 0.999999 4.299999
v -7.699999 0.999999 5.900000
v -7.900000 0.999999 4.300000
v -7.900000 0.999999 5.700000
v -7.699999 0.999999 4.100000
v -6.300000 0.999999 5.900000
v -6.300000 0.999999 4.100000
v -6.099999 0.999999 5.700000
v -6.099999 0.999999 4.300000
v -8.000000 0.999999 6.400000
v -8.400000 0.999999 6.000000
v -0.300000 1.000000 0.100000
v -0.100000 1.000000 -0.300000
v -0.300000 1.000000 -0.100000
v -0.100000 1.000000 0.300000
v 0.100000 1.000000 -0.300000
v 0.100000 1.000000 0.300000
v 0.300000 1.000000 -0.100000
v 0.300000 1.000000 0.100000
v -3.900000 1.000000 1.700000
v -3.700000 1.000000 0.100000
v -3.900000 1.000000 0.300001
v -3.700000 1.000000 1.900000
v -2.300000 1.000000 1.900000
v -2.300000 1.000000 0.100000
v -2.100000 1.000000 0.300000
v -2.100000 1.000000 1.700000
v 1.900000 1.000000 -1.700000
v 2.100000 1.000000 -1.700000
v -1.900000 1.000000 -0.300000
v -1.700000 1.000000 -1.899999
v -1.900000 1.000000 -1.699999
v -1.700000 1.000000 -0.100000
v -0.300000 1.000000 -1.899999
v -0.300000 1.000000 -0.100000
v -0.100000 1.000000 -1.700000
v -0.100000 1.000000 -0.300000
v 2.100000 1.000000 -0.300000
v 2.300000 1.000000 -1.900000
v 2.100000 1.000000 -1.700000
v 2.300000 1.000000 -0.100000
v 3.700000 1.000000 -1.900000
v 3.700000 1.000000 -0.100000
v 3.900000 1.000000 -0.300000
v 3.900000 1.000000 -1.700000
v -7.900000 1.000000 -1.699999
v -8.100000 1.000000 -1.699999
v 0.100000 1.000000 -2.300000
v 0.300000 1.000001 -3.899999
v 0.100000 1.000001 -3.699999
v 0.300000 1.000000 -2.099999
v 1.700000 1.000001 -3.900000
v 1.700000 1.000000 -2.100000
v 1.900000 1.000001 -3.699999
v 1.900000 1.000000 -2.300000
v -7.700000 1.000001 -6.099998
v -8.000001 1.000001 -6.599998
v -8.000001 1.000001 -6.399999
v 8.000000 1.000001 -6.599999
v -6.300001 1.000001 -6.099998
v -5.700000 1.000001 -6.099998
v -4.300001 1.000001 -6.099998
v -3.700000 1.000001 -6.099998
v -2.300001 1.000001 -6.099999
v -1.700000 1.000001 -6.099999
v -0.300001 1.000001 -6.099999
v 0.300000 1.000001 -6.099999
v 1.699999 1.000001 -6.099999
v 2.300000 1.000001 -6.099999
v 3.699999 1.000001 -6.099999
v 4.300000 1.000001 -6.099999
v 5.699999 1.000001 -6.099999
v 6.300000 1.000001 -6.099999
v 7.699999 1.000001 -6.099999
v 8.000000 1.000001 -6.400000
v 8.000000 1.000001 -6.400000
v 8.400000 1.000001 -6.000000
v -8.600000 1.000001 -5.999999
v -8.600001 1.000001 -6.599998
v -8.400000 1.000001 -5.999999
v 7.900000 1.000000 0.300000
v 7.700000 1.000000 -0.100000
v 7.700000 1.000000 0.100000
v 7.900000 1.000000 -0.300000
v 8.100000 1.000000 0.299999
v 8.100000 1.000000 -0.300000
v 0.100000 1.000001 -4.300000
v 0.300000 1.000001 -5.900000
v 0.100000 1.000001 -5.699999
v 0.300000 1.000001 -4.099999
v 1.699999 1.000001 -5.900000
v 1.700000 1.000001 -4.099999
v 1.899999 1.000001 -5.699999
v 1.900000 1.000001 -4.300000
v 8.400000 1.000001 -6.000000
v 8.599999 1.000001 -6.599999
v 8.600000 1.000001 -6.000000
v -3.900000 1.000000 -0.300000
v -3.700000 1.000000 -1.899999
v -3.900000 1.000000 -1.699999
v -3.700000 1.000000 -0.100000
v -2.300000 1.000000 -1.899999
v -2.300000 1.000000 -0.100000
v -2.100000 1.000000 -0.300000
v -2.100000 1.000000 -1.699999
v 0.100000 1.000000 -0.300000
v 0.300000 1.000000 -1.899999
v 0.100000 1.000000 -1.700000
v 0.300000 1.000000 -0.100000
v 1.700000 1.000000 -1.900000
v 1.700000 1.000000 -0.100000
v 1.900000 1.000000 -1.700000
v 1.900000 1.000000 -0.300000
v -1.900000 1.000000 -2.299999
v -1.700000 1.000001 -3.899999
v -1.900000 1.000001 -3.699999
v -1.700000 1.000000 -2.099999
v -0.300000 1.000001 -3.899999
v -0.300000 1.000000 -2.099999
v -0.100000 1.000001 -3.699999
v -0.100000 1.000000 -2.300000
v 2.300000 1.000000 -2.100000
v 2.100000 1.000001 -3.699999
v 2.100000 1.000000 -2.300000
v 2.300000 1.000001 -3.900000
v 3.700000 1.000000 -2.100000
v 3.700000 1.000001 -3.900000
v 3.900000 1.000000 -2.300000
v 3.900000 1.000001 -3.699999
v -3.700000 1.000000 -2.099999
v -3.900000 1.000001 -3.699999
v -3.900000 1.000000 -2.299999
v -3.700000 1.000001 -3.899999
v -2.300000 1.000000 -2.099999
v -2.300000 1.000001 -3.899999
v -2.100000 1.000000 -2.299999
v -2.100000 1.000001 -3.699999
v -5.700000 1.000000 -0.099999
v -5.900000 1.000000 -1.699999
v -5.900000 1.000000 -0.299999
v -5.700000 1.000000 -1.899999
v -4.300000 1.000000 -0.099999
v -4.300000 1.000000 -1.899999
v -4.100000 1.000000 -0.300000
v -4.100000 1.000000 -1.699999
v -5.900000 1.000000 -2.299999
v -5.700000 1.000001 -3.899999
v -5.900001 1.000001 -3.699999
v -5.700000 1.000000 -2.099999
v -4.300001 1.000001 -3.899999
v -4.300000 1.000000 -2.099999
v -4.100000 1.000001 -3.699999
v -4.100000 1.000000 -2.299999
v 4.300000 1.000000 -0.100000
v 4.100000 1.000000 -1.700000
v 4.100000 1.000000 -0.300000
v 4.300000 1.000000 -1.900000
v 5.700000 1.000000 -0.100000
v 5.700000 1.000000 -1.900000
v 5.900000 1.000000 -0.300000
v 5.900000 1.000000 -1.700000
v 4.100000 1.000000 -2.300000
v 4.300000 1.000001 -3.900000
v 4.099999 1.000001 -3.699999
v 4.300000 1.000000 -2.100000
v 5.699999 1.000001 -3.900000
v 5.700000 1.000000 -2.100000
v 5.900000 1.000001 -3.700000
v 5.900000 1.000000 -2.300000
v 6.300000 1.000000 -0.100000
v 6.100000 1.000000 -1.700000
v 6.100000 1.000000 -0.300000
v 6.300000 1.000000 -1.900000
v 7.700000 1.000000 -0.100000
v 7.700000 1.000000 -1.900000
v 7.900000 1.000000 -0.300000
v 7.900000 1.000000 -1.700000
v 6.100000 1.000000 -2.300000
v 6.300000 1.000001 -3.900000
v 6.099999 1.000001 -3.700000
v 6.300000 1.000000 -2.100000
v 7.699999 1.000001 -3.900000
v 7.700000 1.000000 -2.100000
v 7.900000 1.000001 -3.700000
v 7.900000 1.000000 -2.300000
v -7.700000 1.000000 -0.099999
v -7.900000 1.000000 -1.699999
v -7.900000 1.000000 -0.299999
v -7.700000 1.000000 -1.899999
v -6.300000 1.000000 -0.099999
v -6.300000 1.000000 -1.899999
v -6.100000 1.000000 -0.299999
v -6.100000 1.000000 -1.699999
v -7.900000 1.000000 -2.299999
v -7.700000 1.000001 -3.899999
v -7.900001 1.000001 -3.699998
v -7.700000 1.000000 -2.099999
v -6.300001 1.000001 -3.899999
v -6.300000 1.000000 -2.099999
v -6.100000 1.000001 -3.699999
v -6.100000 1.000000 -2.299999
v 8.100000 0.999999 4.299999
v 8.100000 0.999999 5.699999
v 8.100000 0.999999 3.699999
v 8.100000 0.999999 2.299999
v 8.100000 1.000000 1.700000
v 8.100000 1.000000 0.299999
v 8.100000 1.000000 -0.300000
v 8.100000 1.000000 -1.700001
v 8.100000 1.000000 -2.300000
v 8.100000 1.000001 -3.700001
v 8.100000 1.000001 -4.300000
v 8.100000 1.000001 -5.700000
v -8.400000 0.999999 6.000000
v -8.600000 1.000001 -5.999999
v -8.600000 0.999999 6.000000
v -8.400000 1.000001 -5.999999
v -8.100000 0.999999 5.700000
v -8.100000 1.000001 -5.699999
v 2.100000 1.000001 -4.300000
v 2.300000 1.000001 -5.900000
v 2.099999 1.000001 -5.699999
v 2.300000 1.000001 -4.099999
v 3.699999 1.000001 -5.900000
v 3.700000 1.000001 -4.100000
v 3.900000 1.000001 -5.700000
v 3.900000 1.000001 -4.300000
v -1.900000 1.000001 -4.300000
v -1.700000 1.000001 -5.900000
v -1.900000 1.000001 -5.699999
v -1.700000 1.000001 -4.099999
v -0.300001 1.000001 -5.900000
v -0.300000 1.000001 -4.099999
v -0.100000 1.000001 -5.699999
v -0.100000 1.000001 -4.300000
v -3.900000 1.000001 -4.299999
v -3.700000 1.000001 -5.899999
v -3.900001 1.000001 -5.699999
v -3.700000 1.000001 -4.099999
v -2.300001 1.000001 -5.900000
v -2.300000 1.000001 -4.099999
v -2.100000 1.000001 -5.699999
v -2.100000 1.000001 -4.300000
v -5.700000 1.000001 -4.099999
v -5.900001 1.000001 -5.699999
v -5.900001 1.000001 -4.299999
v -5.700000 1.000001 -5.899999
v -4.300001 1.000001 -4.099999
v -4.300001 1.000001 -5.899999
v -4.100000 1.000001 -4.299999
v -4.100000 1.000001 -5.699999
v 4.300000 1.000001 -4.100000
v 4.099999 1.000001 -5.700000
v 4.099999 1.000001 -4.300000
v 4.300000 1.000001 -5.900000
v 5.699999 1.000001 -4.100000
v 5.699999 1.000001 -5.900000
v 5.900000 1.000001 -4.300000
v 5.900000 1.000001 -5.700000
v 6.300000 1.000001 -4.100000
v 6.099999 1.000001 -5.700000
v 6.099999 1.000001 -4.300000
v 6.300000 1.000001 -5.900000
v 7.699999 1.000001 -4.100000
v 7.699999 1.000001 -5.900000
v 7.900000 1.000001 -4.300000
v 7.900000 1.000001 -5.700000
v -7.700000 1.000001 -4.099999
v -7.900001 1.000001 -5.699999
v -7.900001 1.000001 -4.299999
v -7.700000 1.000001 -5.899999
v -6.300001 1.000001 -4.099999
v -6.300001 1.000001 -5.899999
v -6.100000 1.000001 -4.299999
v -6.100000 1.000001 -5.699999
v -8.000001 1.000001 -6.399999
v -8.400000 1.000001 -5.999999
v -2.100000 1.000000 0.300000
v -2.300000 1.000000 -0.100000
v -2.300000 1.000000 0.100000
v -2.100000 1.000000 -0.300000
v -1.900000 1.000000 0.300000
v -1.900000 1.000000 -0.300000
v -1.700000 1.000000 0.100000
v -1.700000 1.000000 -0.100000
vn 1.0000 -0.0000 -0.0000
vn -0.0000 -1.0000 -0.0000
vn -0.0000 -0.0000 1.0000
vn -1.0000 -0.0000 -0.0000
vn -0.0000 -0.0000 -1.0000
vn -0.0000 1.0000 -0.0000
vn -0.7071 0.7071 -0.0000
vn -0.7071 -0.7071 -0.0000
vn 0.7071 -0.7071 -0.0000
vn -0.0000 0.7071 0.7071
vn -0.0000 -0.7071 0.7071
vn 0.7071 0.7071 -0.0000
vn -0.0000 0.7071 -0.7071
vn -0.0000 -0.7071 -0.7071
vt 0.484779 0.183929
vt 0.484099 0.183929
vt 0.484099 0.187500
vt 0.484779 0.187500
vt 0.431718 0.174643
vt 0.431718 0.176786
vt 0.433758 0.176786
vt 0.433758 0.174643
vt 0.431718 0.233929
vt 0.433758 0.233929
vt 0.486139 0.176786
vt 0.486820 0.176786
vt 0.486820 0.173214
vt 0.486139 0.173214
vt 0.431718 0.236071
vt 0.433758 0.236071
vt 0.486820 0.233929
vt 0.486139 0.233929
vt 0.486139 0.237500
vt 0.486820 0.237500
vt 0.484099 0.191071
vt 0.484779 0.191071
vt 0.986139 0.926786
vt 0.986139 0.983929
vt 0.986820 0.983929
vt 0.986820 0.926786
vt 0.984099 0.933929
vt 0.984779 0.933929
vt 0.984779 0.891071
vt 0.984099 0.891071
vt 0.484779 0.141071
vt 0.484779 0.137500
vt 0.484099 0.137500
vt 0.484099 0.141071
vt 0.390901 0.176786
vt 0.390901 0.233929
vt 0.984779 0.941071
vt 0.984099 0.941071
vt 0.984099 0.983929
vt 0.984779 0.983929
vt 0.390901 0.174643
vt 0.388861 0.174643
vt 0.388861 0.176786
vt 0.388861 0.233929
vt 0.487500 0.176786
vt 0.487500 0.173214
vt 0.388861 0.236071
vt 0.390901 0.236071
vt 0.487500 0.237500
vt 0.487500 0.233929
vt 0.484099 0.233929
vt 0.484099 0.237500
vt 0.484779 0.237500
vt 0.484779 0.233929
vt 0.987500 0.983929
vt 0.987500 0.926786
vt 0.841071 0.211429
vt 0.841071 0.206429
vt 0.840391 0.206429
vt 0.840391 0.211429
vt 0.839711 0.205000
vt 0.834949 0.205000
vt 0.834949 0.205714
vt 0.839711 0.205714
vt 0.833588 0.206429
vt 0.833588 0.211429
vt 0.834269 0.211429
vt 0.834269 0.206429
vt 0.834949 0.212857
vt 0.839711 0.212857
vt 0.839711 0.212143
vt 0.834949 0.212143
vt 0.841071 0.218571
vt 0.841071 0.213571
vt 0.840391 0.213571
vt 0.840391 0.218571
vt 0.833588 0.213571
vt 0.833588 0.218571
vt 0.834269 0.218571
vt 0.834269 0.213571
vt 0.834949 0.220000
vt 0.839711 0.220000
vt 0.839711 0.219286
vt 0.834949 0.219286
vt 0.841071 0.204286
vt 0.841071 0.199286
vt 0.840391 0.199286
vt 0.840391 0.204286
vt 0.839711 0.197857
vt 0.834949 0.197857
vt 0.834949 0.198571
vt 0.839711 0.198571
vt 0.833588 0.199286
vt 0.833588 0.204286
vt 0.834269 0.204286
vt 0.834269 0.199286
vt 0.846514 0.197857
vt 0.841752 0.197857
vt 0.841752 0.198571
vt 0.846514 0.198571
vt 0.841752 0.205714
vt 0.846514 0.205714
vt 0.846514 0.205000
vt 0.841752 0.205000
vt 0.847874 0.204286
vt 0.847874 0.199286
vt 0.847194 0.199286
vt 0.847194 0.204286
vt 0.841752 0.212857
vt 0.846514 0.212857
vt 0.846514 0.212143
vt 0.841752 0.212143
vt 0.847874 0.211429
vt 0.847874 0.206429
vt 0.847194 0.206429
vt 0.847194 0.211429
vt 0.833588 0.192143
vt 0.833588 0.197143
vt 0.834269 0.197143
vt 0.834269 0.192143
vt 0.841071 0.197143
vt 0.841071 0.192143
vt 0.840391 0.192143
vt 0.840391 0.197143
vt 0.839711 0.190714
vt 0.834949 0.190714
vt 0.834949 0.191429
vt 0.839711 0.191429
vt 0.846514 0.190714
vt 0.841752 0.190714
vt 0.841752 0.191429
vt 0.846514 0.191429
vt 0.847874 0.197143
vt 0.847874 0.192143
vt 0.847194 0.192143
vt 0.847194 0.197143
vt 0.841752 0.220000
vt 0.846514 0.220000
vt 0.846514 0.219286
vt 0.841752 0.219286
vt 0.847874 0.218571
vt 0.847874 0.213571
vt 0.847194 0.213571
vt 0.847194 0.218571
vt 0.841071 0.225714
vt 0.841071 0.220714
vt 0.840391 0.220714
vt 0.840391 0.225714
vt 0.833588 0.220714
vt 0.833588 0.225714
vt 0.834269 0.225714
vt 0.834269 0.220714
vt 0.834949 0.227143
vt 0.839711 0.227143
vt 0.839711 0.226429
vt 0.834949 0.226429
vt 0.841752 0.227143
vt 0.846514 0.227143
vt 0.846514 0.226429
vt 0.841752 0.226429
vt 0.847874 0.225714
vt 0.847874 0.220714
vt 0.847194 0.220714
vt 0.847194 0.225714
vt 0.833588 0.185000
vt 0.833588 0.190000
vt 0.834269 0.190000
vt 0.834269 0.185000
vt 0.841071 0.190000
vt 0.841071 0.185000
vt 0.840391 0.185000
vt 0.840391 0.190000
vt 0.839711 0.183571
vt 0.834949 0.183571
vt 0.834949 0.184286
vt 0.839711 0.184286
vt 0.846514 0.183571
vt 0.841752 0.183571
vt 0.841752 0.184286
vt 0.846514 0.184286
vt 0.847874 0.190000
vt 0.847874 0.185000
vt 0.847194 0.185000
vt 0.847194 0.190000
vt 0.833588 0.177857
vt 0.833588 0.182857
vt 0.834269 0.182857
vt 0.834269 0.177857
vt 0.841071 0.182857
vt 0.841071 0.177857
vt 0.840391 0.177857
vt 0.840391 0.182857
vt 0.839711 0.176429
vt 0.834949 0.176429
vt 0.834949 0.177143
vt 0.839711 0.177143
vt 0.846514 0.176429
vt 0.841752 0.176429
vt 0.841752 0.177143
vt 0.846514 0.177143
vt 0.847874 0.182857
vt 0.847874 0.177857
vt 0.847194 0.177857
vt 0.847194 0.182857
vt 0.841071 0.232857
vt 0.841071 0.227857
vt 0.840391 0.227857
vt 0.840391 0.232857
vt 0.833588 0.227857
vt 0.833588 0.232857
vt 0.834269 0.232857
vt 0.834269 0.227857
vt 0.834949 0.234286
vt 0.839711 0.234286
vt 0.839711 0.233571
vt 0.834949 0.233571
vt 0.841752 0.234286
vt 0.846514 0.234286
vt 0.846514 0.233571
vt 0.841752 0.233571
vt 0.847874 0.232857
vt 0.847874 0.227857
vt 0.847194 0.227857
vt 0.847194 0.232857
vt 0.853316 0.197857
vt 0.848554 0.197857
vt 0.848554 0.198571
vt 0.853316 0.198571
vt 0.848554 0.205714
vt 0.853316 0.205714
vt 0.853316 0.205000
vt 0.848554 0.205000
vt 0.854677 0.204286
vt 0.854677 0.199286
vt 0.853997 0.199286
vt 0.853997 0.204286
vt 0.853316 0.190714
vt 0.848554 0.190714
vt 0.848554 0.191429
vt 0.853316 0.191429
vt 0.854677 0.197143
vt 0.854677 0.192143
vt 0.853997 0.192143
vt 0.853997 0.197143
vt 0.848554 0.212857
vt 0.853316 0.212857
vt 0.853316 0.212143
vt 0.848554 0.212143
vt 0.854677 0.211429
vt 0.854677 0.206429
vt 0.853997 0.206429
vt 0.853997 0.211429
vt 0.848554 0.220000
vt 0.853316 0.220000
vt 0.853316 0.219286
vt 0.848554 0.219286
vt 0.854677 0.218571
vt 0.854677 0.213571
vt 0.853997 0.213571
vt 0.853997 0.218571
vt 0.848554 0.227143
vt 0.853316 0.227143
vt 0.853316 0.226429
vt 0.848554 0.226429
vt 0.854677 0.225714
vt 0.854677 0.220714
vt 0.853997 0.220714
vt 0.853997 0.225714
vt 0.853316 0.183571
vt 0.848554 0.183571
vt 0.848554 0.184286
vt 0.853316 0.184286
vt 0.854677 0.190000
vt 0.854677 0.185000
vt 0.853997 0.185000
vt 0.853997 0.190000
vt 0.853316 0.176429
vt 0.848554 0.176429
vt 0.848554 0.177143
vt 0.853316 0.177143
vt 0.854677 0.182857
vt 0.854677 0.177857
vt 0.853997 0.177857
vt 0.853997 0.182857
vt 0.848554 0.234286
vt 0.853316 0.234286
vt 0.853316 0.233571
vt 0.848554 0.233571
vt 0.854677 0.232857
vt 0.854677 0.227857
vt 0.853997 0.227857
vt 0.853997 0.232857
vt 0.827466 0.211429
vt 0.827466 0.206429
vt 0.826786 0.206429
vt 0.826786 0.211429
vt 0.828146 0.205714
vt 0.832908 0.205714
vt 0.832908 0.205000
vt 0.828146 0.205000
vt 0.832908 0.212143
vt 0.828146 0.212143
vt 0.828146 0.212857
vt 0.832908 0.212857
vt 0.827466 0.218571
vt 0.827466 0.213571
vt 0.826786 0.213571
vt 0.826786 0.218571
vt 0.832908 0.219286
vt 0.828146 0.219286
vt 0.828146 0.220000
vt 0.832908 0.220000
vt 0.827466 0.204286
vt 0.827466 0.199286
vt 0.826786 0.199286
vt 0.826786 0.204286
vt 0.828146 0.198571
vt 0.832908 0.198571
vt 0.832908 0.197857
vt 0.828146 0.197857
vt 0.821344 0.198571
vt 0.826105 0.198571
vt 0.826105 0.197857
vt 0.821344 0.197857
vt 0.826105 0.205000
vt 0.821344 0.205000
vt 0.821344 0.205714
vt 0.826105 0.205714
vt 0.820663 0.204286
vt 0.820663 0.199286
vt 0.819983 0.199286
vt 0.819983 0.204286
vt 0.826105 0.212143
vt 0.821344 0.212143
vt 0.821344 0.212857
vt 0.826105 0.212857
vt 0.820663 0.211429
vt 0.820663 0.206429
vt 0.819983 0.206429
vt 0.819983 0.211429
vt 0.827466 0.197143
vt 0.827466 0.192143
vt 0.826786 0.192143
vt 0.826786 0.197143
vt 0.828146 0.191429
vt 0.832908 0.191429
vt 0.832908 0.190714
vt 0.828146 0.190714
vt 0.821344 0.191429
vt 0.826105 0.191429
vt 0.826105 0.190714
vt 0.821344 0.190714
vt 0.820663 0.197143
vt 0.820663 0.192143
vt 0.819983 0.192143
vt 0.819983 0.197143
vt 0.826105 0.219286
vt 0.821344 0.219286
vt 0.821344 0.220000
vt 0.826105 0.220000
vt 0.820663 0.218571
vt 0.820663 0.213571
vt 0.819983 0.213571
vt 0.819983 0.218571
vt 0.827466 0.225714
vt 0.827466 0.220714
vt 0.826786 0.220714
vt 0.826786 0.225714
vt 0.832908 0.226429
vt 0.828146 0.226429
vt 0.828146 0.227143
vt 0.832908 0.227143
vt 0.826105 0.226429
vt 0.821344 0.226429
vt 0.821344 0.227143
vt 0.826105 0.227143
vt 0.820663 0.225714
vt 0.820663 0.220714
vt 0.819983 0.220714
vt 0.819983 0.225714
vt 0.827466 0.190000
vt 0.827466 0.185000
vt 0.826786 0.185000
vt 0.826786 0.190000
vt 0.828146 0.184286
vt 0.832908 0.184286
vt 0.832908 0.183571
vt 0.828146 0.183571
vt 0.821344 0.184286
vt 0.826105 0.184286
vt 0.826105 0.183571
vt 0.821344 0.183571
vt 0.820663 0.190000
vt 0.820663 0.185000
vt 0.819983 0.185000
vt 0.819983 0.190000
vt 0.827466 0.182857
vt 0.827466 0.177857
vt 0.826786 0.177857
vt 0.826786 0.182857
vt 0.828146 0.177143
vt 0.832908 0.177143
vt 0.832908 0.176429
vt 0.828146 0.176429
vt 0.821344 0.177143
vt 0.826105 0.177143
vt 0.826105 0.176429
vt 0.821344 0.176429
vt 0.820663 0.182857
vt 0.820663 0.177857
vt 0.819983 0.177857
vt 0.819983 0.182857
vt 0.827466 0.232857
vt 0.827466 0.227857
vt 0.826786 0.227857
vt 0.826786 0.232857
vt 0.832908 0.233571
vt 0.828146 0.233571
vt 0.828146 0.234286
vt 0.832908 0.234286
vt 0.826105 0.233571
vt 0.821344 0.233571
vt 0.821344 0.234286
vt 0.826105 0.234286
vt 0.820663 0.232857
vt 0.820663 0.227857
vt 0.819983 0.227857
vt 0.819983 0.232857
vt 0.814541 0.198571
vt 0.819303 0.198571
vt 0.819303 0.197857
vt 0.814541 0.197857
vt 0.819303 0.205000
vt 0.814541 0.205000
vt 0.814541 0.205714
vt 0.819303 0.205714
vt 0.813861 0.204286
vt 0.813861 0.199286
vt 0.813180 0.199286
vt 0.813180 0.204286
vt 0.814541 0.191429
vt 0.819303 0.191429
vt 0.819303 0.190714
vt 0.814541 0.190714
vt 0.813861 0.197143
vt 0.813861 0.192143
vt 0.813180 0.192143
vt 0.813180 0.197143
vt 0.819303 0.212143
vt 0.814541 0.212143
vt 0.814541 0.212857
vt 0.819303 0.212857
vt 0.813861 0.211429
vt 0.813861 0.206429
vt 0.813180 0.206429
vt 0.813180 0.211429
vt 0.819303 0.219286
vt 0.814541 0.219286
vt 0.814541 0.220000
vt 0.819303 0.220000
vt 0.813861 0.218571
vt 0.813861 0.213571
vt 0.813180 0.213571
vt 0.813180 0.218571
vt 0.819303 0.226429
vt 0.814541 0.226429
vt 0.814541 0.227143
vt 0.819303 0.227143
vt 0.813861 0.225714
vt 0.813861 0.220714
vt 0.813180 0.220714
vt 0.813180 0.225714
vt 0.814541 0.184286
vt 0.819303 0.184286
vt 0.819303 0.183571
vt 0.814541 0.183571
vt 0.813861 0.190000
vt 0.813861 0.185000
vt 0.813180 0.185000
vt 0.813180 0.190000
vt 0.814541 0.177143
vt 0.819303 0.177143
vt 0.819303 0.176429
vt 0.814541 0.176429
vt 0.813861 0.182857
vt 0.813861 0.177857
vt 0.813180 0.177857
vt 0.813180 0.182857
vt 0.819303 0.233571
vt 0.814541 0.233571
vt 0.814541 0.234286
vt 0.819303 0.234286
vt 0.813861 0.232857
vt 0.813861 0.227857
vt 0.813180 0.227857
vt 0.813180 0.232857
vt 0.857738 0.188929
vt 0.857738 0.191071
vt 0.859099 0.191071
vt 0.859099 0.187500
vt 0.861139 0.191071
vt 0.861139 0.188929
vt 0.859779 0.187500
vt 0.859779 0.191071
vt 0.859779 0.183929
vt 0.861139 0.186071
vt 0.861139 0.183929
vt 0.857738 0.233929
vt 0.857738 0.176786
vt 0.856378 0.176786
vt 0.856378 0.233929
vt 0.810119 0.176786
vt 0.808758 0.176786
vt 0.808758 0.233929
vt 0.810119 0.233929
vt 0.857738 0.173214
vt 0.856378 0.174643
vt 0.810119 0.237500
vt 0.808758 0.236071
vt 0.857738 0.237500
vt 0.856378 0.236071
vt 0.808758 0.174643
vt 0.810119 0.173214
vt 0.857738 0.183929
vt 0.857738 0.186071
vt 0.859099 0.183929
vt 0.859779 0.233929
vt 0.861139 0.233929
vt 0.859099 0.141071
vt 0.857738 0.141071
vt 0.859099 0.233929
vt 0.861139 0.141071
vt 0.859779 0.141071
vt 0.859099 0.237500
vt 0.857738 0.236071
vt 0.859779 0.237500
vt 0.861139 0.236071
vt 0.861139 0.138929
vt 0.859779 0.137500
vt 0.811480 0.233929
vt 0.811480 0.176786
vt 0.763861 0.176786
vt 0.762500 0.176786
vt 0.762500 0.233929
vt 0.763861 0.233929
vt 0.811480 0.174643
vt 0.763861 0.236071
vt 0.762500 0.237500
vt 0.811480 0.236071
vt 0.810119 0.237500
vt 0.762500 0.173214
vt 0.763861 0.174643
vt 0.859099 0.137500
vt 0.857738 0.138929
vt 0.806718 0.233929
vt 0.765901 0.233929
vt 0.765901 0.236071
vt 0.766412 0.235536
vt 0.766412 0.234464
vt 0.806718 0.236071
vt 0.806207 0.234464
vt 0.806207 0.235536
vt 0.089711 0.822857
vt 0.084269 0.822143
vt 0.084949 0.822857
vt 0.090391 0.822143
vt 0.090391 0.817143
vt 0.084269 0.817143
vt 0.084949 0.816429
vt 0.089711 0.816429
vt 0.096514 0.830000
vt 0.091071 0.829286
vt 0.091752 0.830000
vt 0.097194 0.829286
vt 0.091071 0.824286
vt 0.097194 0.824286
vt 0.091752 0.823571
vt 0.096514 0.823571
vt 0.480527 0.183929
vt 0.855697 0.176786
vt 0.854337 0.175357
vt 0.481378 0.236071
vt 0.479337 0.235357
vt 0.479337 0.236071
vt 0.481378 0.233929
vt 0.480697 0.233929
vt 0.103316 0.830000
vt 0.097874 0.829286
vt 0.098554 0.830000
vt 0.103997 0.829286
vt 0.097874 0.824286
vt 0.103997 0.824286
vt 0.098554 0.823571
vt 0.103316 0.823571
vt 0.481378 0.174643
vt 0.480697 0.176786
vt 0.481378 0.176786
vt 0.479337 0.175357
vt 0.479337 0.174643
vt 0.089711 0.837143
vt 0.084269 0.836429
vt 0.084949 0.837143
vt 0.090391 0.836429
vt 0.084269 0.831429
vt 0.090391 0.831429
vt 0.084949 0.830714
vt 0.089711 0.830714
vt 0.089711 0.830000
vt 0.084269 0.829286
vt 0.084949 0.830000
vt 0.090391 0.829286
vt 0.084269 0.824286
vt 0.090391 0.824286
vt 0.084949 0.823571
vt 0.089711 0.823571
vt 0.096514 0.837143
vt 0.091071 0.836429
vt 0.091752 0.837143
vt 0.097194 0.836429
vt 0.091071 0.831429
vt 0.097194 0.831429
vt 0.091752 0.830714
vt 0.096514 0.830714
vt 0.097194 0.822143
vt 0.091752 0.822857
vt 0.096514 0.822857
vt 0.091071 0.822143
vt 0.097194 0.817143
vt 0.091071 0.817143
vt 0.096514 0.816429
vt 0.091752 0.816429
vt 0.097194 0.843571
vt 0.091752 0.844286
vt 0.096514 0.844286
vt 0.091071 0.843571
vt 0.097194 0.838571
vt 0.091071 0.838571
vt 0.096514 0.837857
vt 0.091752 0.837857
vt 0.090391 0.850714
vt 0.084949 0.851429
vt 0.089711 0.851429
vt 0.084269 0.850714
vt 0.090391 0.845714
vt 0.084269 0.845714
vt 0.089711 0.845000
vt 0.084949 0.845000
vt 0.096514 0.851429
vt 0.091071 0.850714
vt 0.091752 0.851429
vt 0.097194 0.850714
vt 0.091071 0.845714
vt 0.097194 0.845714
vt 0.091752 0.845000
vt 0.096514 0.845000
vt 0.090391 0.815000
vt 0.084949 0.815714
vt 0.089711 0.815714
vt 0.084269 0.815000
vt 0.090391 0.810000
vt 0.084269 0.810000
vt 0.089711 0.809286
vt 0.084949 0.809286
vt 0.096514 0.815714
vt 0.091071 0.815000
vt 0.091752 0.815714
vt 0.097194 0.815000
vt 0.091071 0.810000
vt 0.097194 0.810000
vt 0.091752 0.809286
vt 0.096514 0.809286
vt 0.090391 0.807857
vt 0.084949 0.808571
vt 0.089711 0.808571
vt 0.084269 0.807857
vt 0.090391 0.802857
vt 0.084269 0.802857
vt 0.089711 0.802143
vt 0.084949 0.802143
vt 0.096514 0.808571
vt 0.091071 0.807857
vt 0.091752 0.808571
vt 0.097194 0.807857
vt 0.091071 0.802857
vt 0.097194 0.802857
vt 0.091752 0.802143
vt 0.096514 0.802143
vt 0.090391 0.857857
vt 0.084949 0.858571
vt 0.089711 0.858571
vt 0.084269 0.857857
vt 0.090391 0.852857
vt 0.084269 0.852857
vt 0.089711 0.852143
vt 0.084949 0.852143
vt 0.096514 0.858571
vt 0.091071 0.857857
vt 0.091752 0.858571
vt 0.097194 0.857857
vt 0.091071 0.852857
vt 0.097194 0.852857
vt 0.091752 0.852143
vt 0.096514 0.852143
vt 0.103316 0.822857
vt 0.097874 0.822143
vt 0.098554 0.822857
vt 0.103997 0.822143
vt 0.097874 0.817143
vt 0.103997 0.817143
vt 0.098554 0.816429
vt 0.103316 0.816429
vt 0.103316 0.837143
vt 0.097874 0.836429
vt 0.098554 0.837143
vt 0.103997 0.836429
vt 0.097874 0.831429
vt 0.103997 0.831429
vt 0.098554 0.830714
vt 0.103316 0.830714
vt 0.103316 0.844286
vt 0.097874 0.843571
vt 0.098554 0.844286
vt 0.103997 0.843571
vt 0.097874 0.838571
vt 0.103997 0.838571
vt 0.098554 0.837857
vt 0.103316 0.837857
vt 0.103997 0.850714
vt 0.098554 0.851429
vt 0.103316 0.851429
vt 0.097874 0.850714
vt 0.103997 0.845714
vt 0.097874 0.845714
vt 0.103316 0.845000
vt 0.098554 0.845000
vt 0.103997 0.815000
vt 0.098554 0.815714
vt 0.103316 0.815714
vt 0.097874 0.815000
vt 0.103997 0.810000
vt 0.097874 0.810000
vt 0.103316 0.809286
vt 0.098554 0.809286
vt 0.103997 0.807857
vt 0.098554 0.808571
vt 0.103316 0.808571
vt 0.097874 0.807857
vt 0.103997 0.802857
vt 0.097874 0.802857
vt 0.103316 0.802143
vt 0.098554 0.802143
vt 0.103997 0.857857
vt 0.098554 0.858571
vt 0.103316 0.858571
vt 0.097874 0.857857
vt 0.103997 0.852857
vt 0.097874 0.852857
vt 0.103316 0.852143
vt 0.098554 0.852143
vt 0.855697 0.233929
vt 0.854337 0.235357
vt 0.089711 0.844286
vt 0.084269 0.843571
vt 0.084949 0.844286
vt 0.090391 0.843571
vt 0.090391 0.838571
vt 0.084269 0.838571
vt 0.084949 0.837857
vt 0.089711 0.837857
vt 0.082908 0.837143
vt 0.077466 0.836429
vt 0.078146 0.837143
vt 0.083588 0.836429
vt 0.077466 0.831429
vt 0.083588 0.831429
vt 0.078146 0.830714
vt 0.082908 0.830714
vt 0.082908 0.822857
vt 0.077466 0.822143
vt 0.078146 0.822857
vt 0.083588 0.822143
vt 0.077466 0.817143
vt 0.083588 0.817143
vt 0.082908 0.816429
vt 0.078146 0.816429
vt 0.076105 0.830000
vt 0.070663 0.829286
vt 0.071344 0.830000
vt 0.076786 0.829286
vt 0.070663 0.824286
vt 0.076786 0.824286
vt 0.071344 0.823571
vt 0.076105 0.823571
vt 0.438180 0.232857
vt 0.436480 0.233929
vt 0.437160 0.233929
vt 0.436480 0.176786
vt 0.438180 0.227857
vt 0.438180 0.225714
vt 0.438180 0.220714
vt 0.438180 0.218571
vt 0.438180 0.213571
vt 0.438180 0.211429
vt 0.438180 0.206429
vt 0.438180 0.204286
vt 0.438180 0.199286
vt 0.438180 0.197143
vt 0.438180 0.192143
vt 0.438180 0.190000
vt 0.438180 0.185000
vt 0.438180 0.182857
vt 0.438180 0.177857
vt 0.437160 0.176786
vt 0.812160 0.176786
vt 0.813520 0.175357
vt 0.438520 0.236071
vt 0.436480 0.236071
vt 0.438520 0.235357
vt 0.069303 0.830000
vt 0.063861 0.829286
vt 0.064541 0.830000
vt 0.069983 0.829286
vt 0.063861 0.824286
vt 0.069983 0.824286
vt 0.064541 0.823571
vt 0.069303 0.823571
vt 0.438520 0.175357
vt 0.436480 0.174643
vt 0.438520 0.174643
vt 0.082908 0.844286
vt 0.077466 0.843571
vt 0.078146 0.844286
vt 0.083588 0.843571
vt 0.077466 0.838571
vt 0.083588 0.838571
vt 0.082908 0.837857
vt 0.078146 0.837857
vt 0.082908 0.830000
vt 0.077466 0.829286
vt 0.078146 0.830000
vt 0.083588 0.829286
vt 0.077466 0.824286
vt 0.083588 0.824286
vt 0.078146 0.823571
vt 0.082908 0.823571
vt 0.076105 0.837143
vt 0.070663 0.836429
vt 0.071344 0.837143
vt 0.076786 0.836429
vt 0.070663 0.831429
vt 0.076786 0.831429
vt 0.071344 0.830714
vt 0.076105 0.830714
vt 0.076786 0.822143
vt 0.071344 0.822857
vt 0.076105 0.822857
vt 0.070663 0.822143
vt 0.076786 0.817143
vt 0.070663 0.817143
vt 0.076105 0.816429
vt 0.071344 0.816429
vt 0.076786 0.843571
vt 0.071344 0.844286
vt 0.076105 0.844286
vt 0.070663 0.843571
vt 0.076786 0.838571
vt 0.070663 0.838571
vt 0.076105 0.837857
vt 0.071344 0.837857
vt 0.083588 0.850714
vt 0.078146 0.851429
vt 0.082908 0.851429
vt 0.077466 0.850714
vt 0.083588 0.845714
vt 0.077466 0.845714
vt 0.082908 0.845000
vt 0.078146 0.845000
vt 0.076105 0.851429
vt 0.070663 0.850714
vt 0.071344 0.851429
vt 0.076786 0.850714
vt 0.070663 0.845714
vt 0.076786 0.845714
vt 0.071344 0.845000
vt 0.076105 0.845000
vt 0.083588 0.815000
vt 0.078146 0.815714
vt 0.082908 0.815714
vt 0.077466 0.815000
vt 0.083588 0.810000
vt 0.077466 0.810000
vt 0.082908 0.809286
vt 0.078146 0.809286
vt 0.076105 0.815714
vt 0.070663 0.815000
vt 0.071344 0.815714
vt 0.076786 0.815000
vt 0.070663 0.810000
vt 0.076786 0.810000
vt 0.071344 0.809286
vt 0.076105 0.809286
vt 0.083588 0.807857
vt 0.078146 0.808571
vt 0.082908 0.808571
vt 0.077466 0.807857
vt 0.083588 0.802857
vt 0.077466 0.802857
vt 0.082908 0.802143
vt 0.078146 0.802143
vt 0.076105 0.808571
vt 0.070663 0.807857
vt 0.071344 0.808571
vt 0.076786 0.807857
vt 0.070663 0.802857
vt 0.076786 0.802857
vt 0.071344 0.802143
vt 0.076105 0.802143
vt 0.083588 0.857857
vt 0.078146 0.858571
vt 0.082908 0.858571
vt 0.077466 0.857857
vt 0.083588 0.852857
vt 0.077466 0.852857
vt 0.082908 0.852143
vt 0.078146 0.852143
vt 0.076105 0.858571
vt 0.070663 0.857857
vt 0.071344 0.858571
vt 0.076786 0.857857
vt 0.070663 0.852857
vt 0.076786 0.852857
vt 0.071344 0.852143
vt 0.076105 0.852143
vt 0.473554 0.176429
vt 0.478316 0.176429
vt 0.471514 0.176429
vt 0.466752 0.176429
vt 0.464711 0.176429
vt 0.459949 0.176429
vt 0.457908 0.176429
vt 0.453146 0.176429
vt 0.451105 0.176429
vt 0.446344 0.176429
vt 0.444303 0.176429
vt 0.439541 0.176429
vt 0.478316 0.234286
vt 0.439541 0.234286
vt 0.069303 0.822857
vt 0.063861 0.822143
vt 0.064541 0.822857
vt 0.069983 0.822143
vt 0.063861 0.817143
vt 0.069983 0.817143
vt 0.064541 0.816429
vt 0.069303 0.816429
vt 0.069303 0.837143
vt 0.063861 0.836429
vt 0.064541 0.837143
vt 0.069983 0.836429
vt 0.063861 0.831429
vt 0.069983 0.831429
vt 0.064541 0.830714
vt 0.069303 0.830714
vt 0.069303 0.844286
vt 0.063861 0.843571
vt 0.064541 0.844286
vt 0.069983 0.843571
vt 0.063861 0.838571
vt 0.069983 0.838571
vt 0.064541 0.837857
vt 0.069303 0.837857
vt 0.069983 0.850714
vt 0.064541 0.851429
vt 0.069303 0.851429
vt 0.063861 0.850714
vt 0.069983 0.845714
vt 0.063861 0.845714
vt 0.069303 0.845000
vt 0.064541 0.845000
vt 0.069983 0.815000
vt 0.064541 0.815714
vt 0.069303 0.815714
vt 0.063861 0.815000
vt 0.069983 0.810000
vt 0.063861 0.810000
vt 0.069303 0.809286
vt 0.064541 0.809286
vt 0.069983 0.807857
vt 0.064541 0.808571
vt 0.069303 0.808571
vt 0.063861 0.807857
vt 0.069983 0.802857
vt 0.063861 0.802857
vt 0.069303 0.802143
vt 0.064541 0.802143
vt 0.069983 0.857857
vt 0.064541 0.858571
vt 0.069303 0.858571
vt 0.063861 0.857857
vt 0.069983 0.852857
vt 0.063861 0.852857
vt 0.069303 0.852143
vt 0.064541 0.852143
vt 0.812160 0.233929
vt 0.813520 0.235357
s 0
usemtl Placeable
f 1/1/1 2/2/1 3/3/1
f 1/1/1 3/3/1 4/4/1
f 5/5/2 6/6/2 7/7/2
f 5/5/2 7/7/2 8/8/2
f 6/6/2 9/9/2 10/10/2
f 6/6/2 10/10/2 7/7/2
f 11/11/3 12/12/3 13/13/3
f 11/11/3 13/13/3 14/14/3
f 9/9/2 15/15/2 16/16/2
f 9/9/2 16/16/2 10/10/2
f 17/17/3 18/18/3 19/19/3
f 17/17/3 19/19/3 20/20/3
f 21/21/4 22/22/4 23/4/4
f 21/21/4 23/4/4 24/3/4
f 25/23/3 26/24/3 27/25/3
f 25/23/3 27/25/3 28/26/3
f 29/27/1 30/28/1 31/29/1
f 29/27/1 31/29/1 32/30/1
f 33/31/1 34/32/1 35/33/1
f 33/31/1 35/33/1 36/34/1
f 6/6/2 37/35/2 38/36/2
f 6/6/2 38/36/2 9/9/2
f 39/37/4 40/38/4 41/39/4
f 39/37/4 41/39/4 42/40/4
f 43/41/2 44/42/2 45/43/2
f 43/41/2 45/43/2 37/35/2
f 45/43/2 46/44/2 38/36/2
f 45/43/2 38/36/2 37/35/2
f 47/45/5 48/46/5 49/13/5
f 47/45/5 49/13/5 50/12/5
f 38/36/2 46/44/2 51/47/2
f 38/36/2 51/47/2 52/48/2
f 53/17/5 54/20/5 55/49/5
f 53/17/5 55/49/5 56/50/5
f 57/51/4 58/52/4 59/53/4
f 57/51/4 59/53/4 60/54/4
f 9/9/2 38/36/2 52/48/2
f 9/9/2 52/48/2 15/15/2
f 5/5/2 43/41/2 37/35/2
f 5/5/2 37/35/2 6/6/2
f 61/26/5 62/25/5 63/55/5
f 61/26/5 63/55/5 64/56/5
f 65/57/6 66/58/6 67/59/6
f 65/57/6 67/59/6 68/60/6
f 69/61/6 70/62/6 71/63/6
f 69/61/6 71/63/6 72/64/6
f 73/65/6 74/66/6 75/67/6
f 73/65/6 75/67/6 76/68/6
f 77/69/6 78/70/6 79/71/6
f 77/69/6 79/71/6 80/72/6
f 81/73/6 82/74/6 83/75/6
f 81/73/6 83/75/6 84/76/6
f 85/77/6 86/78/6 87/79/6
f 85/77/6 87/79/6 88/80/6
f 89/81/6 90/82/6 91/83/6
f 89/81/6 91/83/6 92/84/6
f 93/85/6 94/86/6 95/87/6
f 93/85/6 95/87/6 96/88/6
f 97/89/6 98/90/6 99/91/6
f 97/89/6 99/91/6 100/92/6
f 101/93/6 102/94/6 103/95/6
f 101/93/6 103/95/6 104/96/6
f 105/97/6 106/98/6 107/99/6
f 105/97/6 107/99/6 108/100/6
f 109/101/6 110/102/6 111/103/6
f 109/101/6 111/103/6 112/104/6
f 113/105/6 114/106/6 115/107/6
f 113/105/6 115/107/6 116/108/6
f 117/109/6 118/110/6 119/111/6
f 117/109/6 119/111/6 120/112/6
f 121/113/6 122/114/6 123/115/6
f 121/113/6 123/115/6 124/116/6
f 125/117/6 126/118/6 127/119/6
f 125/117/6 127/119/6 128/120/6
f 129/121/6 130/122/6 131/123/6
f 129/121/6 131/123/6 132/124/6
f 133/125/6 134/126/6 135/127/6
f 133/125/6 135/127/6 136/128/6
f 137/129/6 138/130/6 139/131/6
f 137/129/6 139/131/6 140/132/6
f 141/133/6 142/134/6 143/135/6
f 141/133/6 143/135/6 144/136/6
f 145/137/6 146/138/6 147/139/6
f 145/137/6 147/139/6 148/140/6
f 149/141/6 150/142/6 151/143/6
f 149/141/6 151/143/6 152/144/6
f 153/145/6 154/146/6 155/147/6
f 153/145/6 155/147/6 156/148/6
f 157/149/6 158/150/6 159/151/6
f 157/149/6 159/151/6 160/152/6
f 161/153/6 162/154/6 163/155/6
f 161/153/6 163/155/6 164/156/6
f 165/157/6 166/158/6 167/159/6
f 165/157/6 167/159/6 168/160/6
f 169/161/6 170/162/6 171/163/6
f 169/161/6 171/163/6 172/164/6
f 173/165/6 174/166/6 175/167/6
f 173/165/6 175/167/6 176/168/6
f 177/169/6 178/170/6 179/171/6
f 177/169/6 179/171/6 180/172/6
f 181/173/6 182/174/6 183/175/6
f 181/173/6 183/175/6 184/176/6
f 185/177/6 186/178/6 187/179/6
f 185/177/6 187/179/6 188/180/6
f 189/181/6 190/182/6 191/183/6
f 189/181/6 191/183/6 192/184/6
f 193/185/6 194/186/6 195/187/6
f 193/185/6 195/187/6 196/188/6
f 197/189/6 198/190/6 199/191/6
f 197/189/6 199/191/6 200/192/6
f 201/193/6 202/194/6 203/195/6
f 201/193/6 203/195/6 204/196/6
f 205/197/6 206/198/6 207/199/6
f 205/197/6 207/199/6 208/200/6
f 209/201/6 210/202/6 211/203/6
f 209/201/6 211/203/6 212/204/6
f 213/205/6 214/206/6 215/207/6
f 213/205/6 215/207/6 216/208/6
f 217/209/6 218/210/6 219/211/6
f 217/209/6 219/211/6 220/212/6
f 221/213/6 222/214/6 223/215/6
f 221/213/6 223/215/6 224/216/6
f 225/217/6 226/218/6 227/219/6
f 225/217/6 227/219/6 228/220/6
f 229/221/6 230/222/6 231/223/6
f 229/221/6 231/223/6 232/224/6
f 233/225/6 234/226/6 235/227/6
f 233/225/6 235/227/6 236/228/6
f 237/229/6 238/230/6 239/231/6
f 237/229/6 239/231/6 240/232/6
f 241/233/6 242/234/6 243/235/6
f 241/233/6 243/235/6 244/236/6
f 245/237/6 246/238/6 247/239/6
f 245/237/6 247/239/6 248/240/6
f 249/241/6 250/242/6 251/243/6
f 249/241/6 251/243/6 252/244/6
f 253/245/6 254/246/6 255/247/6
f 253/245/6 255/247/6 256/248/6
f 257/249/6 258/250/6 259/251/6
f 257/249/6 259/251/6 260/252/6
f 261/253/6 262/254/6 263/255/6
f 261/253/6 263/255/6 264/256/6
f 265/257/6 266/258/6 267/259/6
f 265/257/6 267/259/6 268/260/6
f 269/261/6 270/262/6 271/263/6
f 269/261/6 271/263/6 272/264/6
f 273/265/6 274/266/6 275/267/6
f 273/265/6 275/267/6 276/268/6
f 277/269/6 278/270/6 279/271/6
f 277/269/6 279/271/6 280/272/6
f 281/273/6 282/274/6 283/275/6
f 281/273/6 283/275/6 284/276/6
f 285/277/6 286/278/6 287/279/6
f 285/277/6 287/279/6 288/280/6
f 289/281/6 290/282/6 291/283/6
f 289/281/6 291/283/6 292/284/6
f 293/285/6 294/286/6 295/287/6
f 293/285/6 295/287/6 296/288/6
f 297/289/6 298/290/6 299/291/6
f 297/289/6 299/291/6 300/292/6
f 301/293/6 302/294/6 303/295/6
f 301/293/6 303/295/6 304/296/6
f 305/297/6 306/298/6 307/299/6
f 305/297/6 307/299/6 308/300/6
f 309/301/6 310/302/6 311/303/6
f 309/301/6 311/303/6 312/304/6
f 313/305/6 314/306/6 315/307/6
f 313/305/6 315/307/6 316/308/6
f 317/309/6 318/310/6 319/311/6
f 317/309/6 319/311/6 320/312/6
f 321/313/6 322/314/6 323/315/6
f 321/313/6 323/315/6 324/316/6
f 325/317/6 326/318/6 327/319/6
f 325/317/6 327/319/6 328/320/6
f 329/321/6 330/322/6 331/323/6
f 329/321/6 331/323/6 332/324/6
f 333/325/6 334/326/6 335/327/6
f 333/325/6 335/327/6 336/328/6
f 337/329/6 338/330/6 339/331/6
f 337/329/6 339/331/6 340/332/6
f 341/333/6 342/334/6 343/335/6
f 341/333/6 343/335/6 344/336/6
f 345/337/6 346/338/6 347/339/6
f 345/337/6 347/339/6 348/340/6
f 349/341/6 350/342/6 351/343/6
f 349/341/6 351/343/6 352/344/6
f 353/345/6 354/346/6 355/347/6
f 353/345/6 355/347/6 356/348/6
f 357/349/6 358/350/6 359/351/6
f 357/349/6 359/351/6 360/352/6
f 361/353/6 362/354/6 363/355/6
f 361/353/6 363/355/6 364/356/6
f 365/357/6 366/358/6 367/359/6
f 365/357/6 367/359/6 368/360/6
f 369/361/6 370/362/6 371/363/6
f 369/361/6 371/363/6 372/364/6
f 373/365/6 374/366/6 375/367/6
f 373/365/6 375/367/6 376/368/6
f 377/369/6 378/370/6 379/371/6
f 377/369/6 379/371/6 380/372/6
f 381/373/6 382/374/6 383/375/6
f 381/373/6 383/375/6 384/376/6
f 385/377/6 386/378/6 387/379/6
f 385/377/6 387/379/6 388/380/6
f 389/381/6 390/382/6 391/383/6
f 389/381/6 391/383/6 392/384/6
f 393/385/6 394/386/6 395/387/6
f 393/385/6 395/387/6 396/388/6
f 397/389/6 398/390/6 399/391/6
f 397/389/6 399/391/6 400/392/6
f 401/393/6 402/394/6 403/395/6
f 401/393/6 403/395/6 404/396/6
f 405/397/6 406/398/6 407/399/6
f 405/397/6 407/399/6 408/400/6
f 409/401/6 410/402/6 411/403/6
f 409/401/6 411/403/6 412/404/6
f 413/405/6 414/406/6 415/407/6
f 413/405/6 415/407/6 416/408/6
f 417/409/6 418/410/6 419/411/6
f 417/409/6 419/411/6 420/412/6
f 421/413/6 422/414/6 423/415/6
f 421/413/6 423/415/6 424/416/6
f 425/417/6 426/418/6 427/419/6
f 425/417/6 427/419/6 428/420/6
f 429/421/6 430/422/6 431/423/6
f 429/421/6 431/423/6 432/424/6
f 433/425/6 434/426/6 435/427/6
f 433/425/6 435/427/6 436/428/6
f 437/429/6 438/430/6 439/431/6
f 437/429/6 439/431/6 440/432/6
f 441/433/6 442/434/6 443/435/6
f 441/433/6 443/435/6 444/436/6
f 445/437/6 446/438/6 447/439/6
f 445/437/6 447/439/6 448/440/6
f 449/441/6 450/442/6 451/443/6
f 449/441/6 451/443/6 452/444/6
f 453/445/6 454/446/6 455/447/6
f 453/445/6 455/447/6 456/448/6
f 457/449/6 458/450/6 459/451/6
f 457/449/6 459/451/6 460/452/6
f 461/453/6 462/454/6 463/455/6
f 461/453/6 463/455/6 464/456/6
f 465/457/6 466/458/6 467/459/6
f 465/457/6 467/459/6 468/460/6
f 469/461/6 470/462/6 471/463/6
f 469/461/6 471/463/6 472/464/6
f 473/465/6 474/466/6 475/467/6
f 473/465/6 475/467/6 476/468/6
f 477/469/6 478/470/6 479/471/6
f 477/469/6 479/471/6 480/472/6
f 481/473/6 482/474/6 483/475/6
f 481/473/6 483/475/6 484/476/6
f 485/477/6 486/478/6 487/479/6
f 485/477/6 487/479/6 488/480/6
f 489/481/6 490/482/6 491/483/6
f 489/481/6 491/483/6 492/484/6
f 493/485/6 494/486/6 495/487/6
f 493/485/6 495/487/6 496/488/6
f 497/489/6 498/490/6 499/491/6
f 497/489/6 499/491/6 500/492/6
f 501/493/6 502/494/6 503/495/6
f 501/493/6 503/495/6 504/496/6
f 505/497/7 506/498/7 507/499/7
f 505/497/7 507/499/7 508/500/7
f 509/501/8 510/502/8 511/503/8
f 509/501/8 511/503/8 512/504/8
f 513/505/9 514/503/9 515/506/9
f 513/505/9 515/506/9 516/507/9
f 517/508/10 518/509/10 519/510/10
f 517/508/10 519/510/10 520/511/10
f 521/512/11 522/513/11 523/514/11
f 521/512/11 523/514/11 524/515/11
f 525/509/10 526/516/10 527/517/10
f 525/509/10 527/517/10 528/510/10
f 529/518/11 530/515/11 531/514/11
f 529/518/11 531/514/11 532/519/11
f 533/520/10 534/508/10 535/511/10
f 533/520/10 535/511/10 536/521/10
f 537/522/11 538/513/11 539/512/11
f 537/522/11 539/512/11 540/523/11
f 541/524/12 542/525/12 543/500/12
f 541/524/12 543/500/12 544/526/12
f 545/527/8 546/528/8 547/501/8
f 545/527/8 547/501/8 548/504/8
f 549/529/12 550/530/12 551/524/12
f 549/529/12 551/524/12 552/526/12
f 553/499/7 554/498/7 555/508/7
f 553/499/7 555/508/7 556/531/7
f 557/532/9 558/533/9 559/505/9
f 557/532/9 559/505/9 560/507/9
f 561/534/7 562/531/7 563/508/7
f 561/534/7 563/508/7 564/535/7
f 565/527/8 566/536/8 567/537/8
f 565/527/8 567/537/8 568/528/8
f 569/532/9 570/538/9 571/539/9
f 569/532/9 571/539/9 572/533/9
f 573/540/13 574/541/13 575/512/13
f 573/540/13 575/512/13 576/515/13
f 577/542/14 578/543/14 579/544/14
f 577/542/14 579/544/14 580/545/14
f 581/541/13 582/546/13 583/523/13
f 581/541/13 583/523/13 584/512/13
f 585/547/14 586/545/14 587/544/14
f 585/547/14 587/544/14 588/548/14
f 589/549/13 590/540/13 591/515/13
f 589/549/13 591/515/13 592/550/13
f 593/551/14 594/543/14 595/542/14
f 593/551/14 595/542/14 596/552/14
f 597/529/12 598/553/12 599/554/12
f 597/529/12 599/554/12 600/530/12
f 601/555/4 602/556/4 603/556/4
f 601/555/4 603/556/4 604/555/4
f 605/556/14 606/557/14 607/558/14
f 605/556/14 607/558/14 608/559/14
f 609/560/11 610/555/11 611/561/11
f 609/560/11 611/561/11 612/562/11
f 613/562/9 614/558/9 615/557/9
f 613/562/9 615/557/9 616/560/9
f 617/555/8 618/556/8 619/559/8
f 617/555/8 619/559/8 620/561/8
f 621/557/1 622/560/1 623/560/1
f 621/557/1 623/560/1 624/557/1
f 625/561/2 626/559/2 627/558/2
f 625/561/2 627/558/2 628/562/2
f 629/556/5 630/557/5 631/557/5
f 629/556/5 631/557/5 632/556/5
f 633/560/3 634/555/3 635/555/3
f 633/560/3 635/555/3 636/560/3
f 637/560/3 638/555/3 639/555/3
f 637/560/3 639/555/3 640/560/3
f 641/556/5 642/557/5 643/557/5
f 641/556/5 643/557/5 644/556/5
f 645/561/2 646/559/2 647/558/2
f 645/561/2 647/558/2 648/562/2
f 649/557/1 650/560/1 651/560/1
f 649/557/1 651/560/1 652/557/1
f 653/555/8 654/556/8 655/559/8
f 653/555/8 655/559/8 656/561/8
f 657/562/9 658/558/9 659/557/9
f 657/562/9 659/557/9 660/560/9
f 661/560/11 662/555/11 663/561/11
f 661/560/11 663/561/11 664/562/11
f 665/556/14 666/557/14 667/558/14
f 665/556/14 667/558/14 668/559/14
f 669/555/4 670/556/4 671/556/4
f 669/555/4 671/556/4 672/555/4
f 673/555/4 674/556/4 675/556/4
f 673/555/4 675/556/4 676/555/4
f 677/556/14 678/557/14 679/558/14
f 677/556/14 679/558/14 680/559/14
f 681/560/11 682/555/11 683/561/11
f 681/560/11 683/561/11 684/562/11
f 685/562/9 686/558/9 687/557/9
f 685/562/9 687/557/9 688/560/9
f 689/555/8 690/556/8 691/559/8
f 689/555/8 691/559/8 692/561/8
f 693/557/1 694/560/1 695/560/1
f 693/557/1 695/560/1 696/557/1
f 697/561/2 698/559/2 699/558/2
f 697/561/2 699/558/2 700/562/2
f 701/556/5 702/557/5 703/557/5
f 701/556/5 703/557/5 704/556/5
f 705/560/3 706/555/3 707/555/3
f 705/560/3 707/555/3 708/560/3
f 709/560/3 710/555/3 711/555/3
f 709/560/3 711/555/3 712/560/3
f 713/556/5 714/557/5 715/557/5
f 713/556/5 715/557/5 716/556/5
f 717/561/2 718/559/2 719/558/2
f 717/561/2 719/558/2 720/562/2
f 721/557/1 722/560/1 723/560/1
f 721/557/1 723/560/1 724/557/1
f 725/555/8 726/556/8 727/559/8
f 725/555/8 727/559/8 728/561/8
f 729/562/9 730/558/9 731/557/9
f 729/562/9 731/557/9 732/560/9
f 733/560/11 734/555/11 735/561/11
f 733/560/11 735/561/11 736/562/11
f 737/556/14 738/557/14 739/558/14
f 737/556/14 739/558/14 740/559/14
f 741/555/4 742/556/4 743/556/4
f 741/555/4 743/556/4 744/555/4
f 745/555/4 746/556/4 747/556/4
f 745/555/4 747/556/4 748/555/4
f 749/556/14 750/557/14 751/558/14
f 749/556/14 751/558/14 752/559/14
f 753/560/11 754/555/11 755/561/11
f 753/560/11 755/561/11 756/562/11
f 757/562/9 758/558/9 759/557/9
f 757/562/9 759/557/9 760/560/9
f 761/555/8 762/556/8 763/559/8
f 761/555/8 763/559/8 764/561/8
f 765/557/1 766/560/1 767/560/1
f 765/557/1 767/560/1 768/557/1
f 769/561/2 770/559/2 771/558/2
f 769/561/2 771/558/2 772/562/2
f 773/556/5 774/557/5 775/557/5
f 773/556/5 775/557/5 776/556/5
f 777/560/3 778/555/3 779/555/3
f 777/560/3 779/555/3 780/560/3
f 107/99/6 95/87/6 94/86/6
f 95/87/6 107/99/6 100/92/6
f 100/92/6 107/99/6 106/98/6
f 100/92/6 106/98/6 97/89/6
f 97/89/6 106/98/6 129/121/6
f 97/89/6 129/121/6 132/124/6
f 781/91/6 782/93/6 783/96/6
f 782/93/6 781/91/6 784/318/6
f 784/318/6 781/91/6 785/90/6
f 784/318/6 785/90/6 786/319/6
f 786/319/6 785/90/6 787/119/6
f 786/319/6 787/119/6 788/118/6
f 789/81/6 790/149/6 791/152/6
f 790/149/6 789/81/6 792/312/6
f 792/312/6 789/81/6 793/84/6
f 792/312/6 793/84/6 794/309/6
f 794/309/6 793/84/6 795/79/6
f 794/309/6 795/79/6 796/78/6
f 797/563/6 798/564/6 799/565/6
f 798/564/6 797/563/6 800/566/6
f 798/564/6 800/566/6 801/567/6
f 798/564/6 801/567/6 802/568/6
f 802/568/6 801/567/6 803/569/6
f 803/569/6 801/567/6 804/570/6
f 805/175/6 806/165/6 807/168/6
f 806/165/6 805/175/6 808/386/6
f 808/386/6 805/175/6 809/174/6
f 808/386/6 809/174/6 810/387/6
f 810/387/6 809/174/6 811/187/6
f 810/387/6 811/187/6 812/186/6
f 165/157/6 215/207/6 214/206/6
f 215/207/6 165/157/6 162/154/6
f 162/154/6 165/157/6 168/160/6
f 162/154/6 168/160/6 163/155/6
f 163/155/6 168/160/6 153/145/6
f 163/155/6 153/145/6 156/148/6
f 109/101/6 67/59/6 66/58/6
f 67/59/6 109/101/6 72/64/6
f 72/64/6 109/101/6 69/61/6
f 69/61/6 109/101/6 112/104/6
f 69/61/6 112/104/6 96/88/6
f 96/88/6 112/104/6 93/85/6
f 139/131/6 131/123/6 130/122/6
f 131/123/6 139/131/6 136/128/6
f 136/128/6 139/131/6 138/130/6
f 136/128/6 138/130/6 133/125/6
f 133/125/6 138/130/6 177/169/6
f 133/125/6 177/169/6 180/172/6
f 813/153/6 814/209/6 815/212/6
f 814/209/6 813/153/6 816/372/6
f 816/372/6 813/153/6 817/156/6
f 816/372/6 817/156/6 818/369/6
f 818/369/6 817/156/6 819/151/6
f 818/369/6 819/151/6 820/150/6
f 207/199/6 199/191/6 198/190/6
f 199/191/6 207/199/6 821/196/6
f 821/196/6 207/199/6 206/198/6
f 821/196/6 206/198/6 822/193/6
f 114/106/6 108/100/6 115/107/6
f 108/100/6 114/106/6 235/227/6
f 108/100/6 235/227/6 105/97/6
f 105/97/6 235/227/6 234/226/6
f 105/97/6 234/226/6 141/133/6
f 105/97/6 141/133/6 144/136/6
f 823/216/6 824/420/6 825/213/6
f 824/420/6 823/216/6 826/417/6
f 826/417/6 823/216/6 827/211/6
f 826/417/6 827/211/6 828/210/6
f 228/220/6 222/214/6 225/217/6
f 222/214/6 228/220/6 223/215/6
f 223/215/6 228/220/6 213/205/6
f 223/215/6 213/205/6 216/208/6
f 237/229/6 123/115/6 122/114/6
f 123/115/6 237/229/6 110/102/6
f 110/102/6 237/229/6 111/103/6
f 111/103/6 237/229/6 240/232/6
f 111/103/6 240/232/6 116/108/6
f 116/108/6 240/232/6 113/105/6
f 269/261/6 231/223/6 230/222/6
f 231/223/6 269/261/6 166/158/6
f 166/158/6 269/261/6 272/264/6
f 166/158/6 272/264/6 167/159/6
f 167/159/6 272/264/6 169/161/6
f 167/159/6 169/161/6 172/164/6
f 241/233/6 259/251/6 258/250/6
f 259/251/6 241/233/6 238/230/6
f 238/230/6 241/233/6 239/231/6
f 239/231/6 241/233/6 244/236/6
f 287/279/6 211/203/6 210/202/6
f 211/203/6 287/279/6 208/200/6
f 208/200/6 287/279/6 286/278/6
f 208/200/6 286/278/6 205/197/6
f 829/571/6 830/572/6 831/573/6
f 830/572/6 829/571/6 832/574/6
f 830/572/6 832/574/6 833/575/6
f 833/575/6 832/574/6 834/576/6
f 833/575/6 834/576/6 835/577/6
f 835/577/6 834/576/6 836/578/6
f 187/179/6 179/171/6 178/170/6
f 179/171/6 187/179/6 184/176/6
f 184/176/6 187/179/6 186/178/6
f 184/176/6 186/178/6 181/173/6
f 181/173/6 186/178/6 197/189/6
f 181/173/6 197/189/6 200/192/6
f 117/109/6 83/75/6 82/74/6
f 83/75/6 117/109/6 837/70/6
f 837/70/6 117/109/6 120/112/6
f 837/70/6 120/112/6 838/71/6
f 838/71/6 120/112/6 65/57/6
f 838/71/6 65/57/6 68/60/6
f 145/137/6 155/147/6 154/146/6
f 155/147/6 145/137/6 90/82/6
f 90/82/6 145/137/6 148/140/6
f 90/82/6 148/140/6 91/83/6
f 91/83/6 148/140/6 81/73/6
f 91/83/6 81/73/6 84/76/6
f 273/265/6 299/291/6 298/290/6
f 299/291/6 273/265/6 270/262/6
f 270/262/6 273/265/6 271/263/6
f 271/263/6 273/265/6 276/268/6
f 839/579/6 840/579/6 841/579/6
f 840/579/6 839/579/6 842/579/6
f 842/579/6 839/579/6 843/579/6
f 843/579/6 839/579/6 844/579/6
f 844/579/6 839/579/6 845/579/6
f 845/579/6 839/579/6 846/579/6
f 846/579/6 839/579/6 847/579/6
f 847/579/6 839/579/6 848/579/6
f 848/579/6 839/579/6 849/579/6
f 849/579/6 839/579/6 850/579/6
f 850/579/6 839/579/6 851/579/6
f 851/579/6 839/579/6 852/579/6
f 852/579/6 839/579/6 853/579/6
f 853/579/6 839/579/6 854/579/6
f 854/579/6 839/579/6 855/579/6
f 855/579/6 839/579/6 856/579/6
f 856/579/6 839/579/6 857/579/6
f 857/579/6 839/579/6 858/579/6
f 859/580/6 291/283/6 290/282/6
f 291/283/6 859/580/6 288/280/6
f 288/280/6 859/580/6 285/277/6
f 285/277/6 859/580/6 860/581/6
f 861/582/6 862/583/6 863/584/6
f 862/583/6 861/582/6 864/585/6
f 862/583/6 864/585/6 865/586/6
f 296/288/6 226/218/6 293/285/6
f 226/218/6 296/288/6 227/219/6
f 227/219/6 296/288/6 229/221/6
f 227/219/6 229/221/6 232/224/6
f 247/239/6 143/135/6 142/134/6
f 143/135/6 247/239/6 140/132/6
f 140/132/6 247/239/6 246/238/6
f 140/132/6 246/238/6 137/129/6
f 137/129/6 246/238/6 189/181/6
f 137/129/6 189/181/6 192/184/6
f 866/587/6 867/588/6 868/589/6
f 867/588/6 866/587/6 869/590/6
f 867/588/6 869/590/6 870/591/6
f 870/591/6 869/590/6 871/592/6
f 870/591/6 871/592/6 872/593/6
f 872/593/6 871/592/6 873/594/6
f 279/271/6 191/183/6 190/182/6
f 191/183/6 279/271/6 188/180/6
f 188/180/6 279/271/6 278/270/6
f 188/180/6 278/270/6 185/177/6
f 185/177/6 278/270/6 209/201/6
f 185/177/6 209/201/6 212/204/6
f 261/253/6 171/163/6 170/162/6
f 171/163/6 261/253/6 146/138/6
f 146/138/6 261/253/6 264/256/6
f 146/138/6 264/256/6 147/139/6
f 147/139/6 264/256/6 149/141/6
f 147/139/6 149/141/6 152/144/6
f 253/245/6 151/143/6 150/142/6
f 151/143/6 253/245/6 118/110/6
f 118/110/6 253/245/6 256/248/6
f 118/110/6 256/248/6 119/111/6
f 119/111/6 256/248/6 124/116/6
f 124/116/6 256/248/6 121/113/6
f 249/241/6 243/235/6 242/234/6
f 243/235/6 249/241/6 236/228/6
f 236/228/6 249/241/6 233/225/6
f 233/225/6 249/241/6 252/244/6
f 281/273/6 251/243/6 250/242/6
f 251/243/6 281/273/6 248/240/6
f 248/240/6 281/273/6 245/237/6
f 245/237/6 281/273/6 284/276/6
f 289/281/6 283/275/6 282/274/6
f 283/275/6 289/281/6 280/272/6
f 280/272/6 289/281/6 277/269/6
f 277/269/6 289/281/6 292/284/6
f 874/595/6 875/596/6 876/597/6
f 875/596/6 874/595/6 877/598/6
f 877/598/6 874/595/6 878/599/6
f 265/257/6 275/267/6 274/266/6
f 275/267/6 265/257/6 262/254/6
f 262/254/6 265/257/6 263/255/6
f 263/255/6 265/257/6 268/260/6
f 257/249/6 267/259/6 266/258/6
f 267/259/6 257/249/6 254/246/6
f 254/246/6 257/249/6 255/247/6
f 255/247/6 257/249/6 260/252/6
f 879/600/6 880/601/6 881/602/6
f 880/601/6 879/600/6 882/603/6
f 880/601/6 882/603/6 883/604/6
f 883/604/6 882/603/6 884/605/6
f 883/604/6 884/605/6 885/606/6
f 885/606/6 884/605/6 886/607/6
f 887/608/6 888/609/6 889/610/6
f 888/609/6 887/608/6 890/611/6
f 888/609/6 890/611/6 891/612/6
f 891/612/6 890/611/6 892/613/6
f 891/612/6 892/613/6 893/614/6
f 893/614/6 892/613/6 894/615/6
f 895/616/6 896/617/6 897/618/6
f 896/617/6 895/616/6 898/619/6
f 896/617/6 898/619/6 899/620/6
f 899/620/6 898/619/6 900/621/6
f 899/620/6 900/621/6 901/622/6
f 901/622/6 900/621/6 902/623/6
f 903/624/6 904/625/6 905/626/6
f 904/625/6 903/624/6 906/627/6
f 906/627/6 903/624/6 907/628/6
f 906/627/6 907/628/6 908/629/6
f 908/629/6 907/628/6 909/630/6
f 908/629/6 909/630/6 910/631/6
f 911/632/6 912/633/6 913/634/6
f 912/633/6 911/632/6 914/635/6
f 914/635/6 911/632/6 915/636/6
f 914/635/6 915/636/6 916/637/6
f 916/637/6 915/636/6 917/638/6
f 916/637/6 917/638/6 918/639/6
f 919/127/6 920/117/6 921/120/6
f 920/117/6 919/127/6 922/346/6
f 922/346/6 919/127/6 923/126/6
f 922/346/6 923/126/6 924/347/6
f 924/347/6 923/126/6 925/167/6
f 924/347/6 925/167/6 926/166/6
f 927/640/6 928/641/6 929/642/6
f 928/641/6 927/640/6 930/643/6
f 930/643/6 927/640/6 931/644/6
f 930/643/6 931/644/6 932/645/6
f 932/645/6 931/644/6 933/646/6
f 932/645/6 933/646/6 934/647/6
f 935/648/6 936/649/6 937/650/6
f 936/649/6 935/648/6 938/651/6
f 936/649/6 938/651/6 939/652/6
f 939/652/6 938/651/6 940/653/6
f 939/652/6 940/653/6 941/654/6
f 941/654/6 940/653/6 942/655/6
f 943/656/6 944/657/6 945/658/6
f 944/657/6 943/656/6 946/659/6
f 946/659/6 943/656/6 947/660/6
f 946/659/6 947/660/6 948/661/6
f 948/661/6 947/660/6 949/662/6
f 948/661/6 949/662/6 950/663/6
f 951/664/6 952/665/6 953/666/6
f 952/665/6 951/664/6 954/667/6
f 952/665/6 954/667/6 955/668/6
f 955/668/6 954/667/6 956/669/6
f 955/668/6 956/669/6 957/670/6
f 957/670/6 956/669/6 958/671/6
f 959/672/6 960/673/6 961/674/6
f 960/673/6 959/672/6 962/675/6
f 962/675/6 959/672/6 963/676/6
f 962/675/6 963/676/6 964/677/6
f 964/677/6 963/676/6 965/678/6
f 964/677/6 965/678/6 966/679/6
f 967/680/6 968/681/6 969/682/6
f 968/681/6 967/680/6 970/683/6
f 968/681/6 970/683/6 971/684/6
f 971/684/6 970/683/6 972/685/6
f 971/684/6 972/685/6 973/686/6
f 973/686/6 972/685/6 974/687/6
f 975/688/6 976/689/6 977/690/6
f 976/689/6 975/688/6 978/691/6
f 978/691/6 975/688/6 979/692/6
f 978/691/6 979/692/6 980/693/6
f 980/693/6 979/692/6 981/694/6
f 980/693/6 981/694/6 982/695/6
f 983/696/6 984/697/6 985/698/6
f 984/697/6 983/696/6 986/699/6
f 984/697/6 986/699/6 987/700/6
f 987/700/6 986/699/6 988/701/6
f 987/700/6 988/701/6 989/702/6
f 989/702/6 988/701/6 990/703/6
f 991/704/6 992/705/6 993/706/6
f 992/705/6 991/704/6 994/707/6
f 992/705/6 994/707/6 995/708/6
f 995/708/6 994/707/6 996/709/6
f 995/708/6 996/709/6 997/710/6
f 997/710/6 996/709/6 998/711/6
f 999/712/6 1000/713/6 1001/714/6
f 1000/713/6 999/712/6 1002/715/6
f 1000/713/6 1002/715/6 1003/716/6
f 1003/716/6 1002/715/6 1004/717/6
f 1003/716/6 1004/717/6 1005/718/6
f 1005/718/6 1004/717/6 1006/719/6
f 1007/720/6 1008/721/6 1009/722/6
f 1008/721/6 1007/720/6 1010/723/6
f 1008/721/6 1010/723/6 1011/724/6
f 1011/724/6 1010/723/6 1012/725/6
f 1011/724/6 1012/725/6 1013/726/6
f 1013/726/6 1012/725/6 1014/727/6
f 1015/728/6 1016/729/6 1017/730/6
f 1016/729/6 1015/728/6 1018/731/6
f 1018/731/6 1015/728/6 1019/732/6
f 1018/731/6 1019/732/6 1020/733/6
f 1020/733/6 1019/732/6 1021/734/6
f 1020/733/6 1021/734/6 1022/735/6
f 1023/736/6 1024/737/6 1025/738/6
f 1024/737/6 1023/736/6 1026/739/6
f 1026/739/6 1023/736/6 1027/740/6
f 1026/739/6 1027/740/6 1028/741/6
f 1028/741/6 1027/740/6 1029/742/6
f 1028/741/6 1029/742/6 1030/743/6
f 1031/744/6 1032/745/6 1033/746/6
f 1032/745/6 1031/744/6 1034/747/6
f 1034/747/6 1031/744/6 1035/748/6
f 1034/747/6 1035/748/6 1036/749/6
f 1036/749/6 1035/748/6 1037/750/6
f 1036/749/6 1037/750/6 1038/751/6
f 1039/752/6 1040/753/6 1041/754/6
f 1040/753/6 1039/752/6 1042/755/6
f 1042/755/6 1039/752/6 1043/756/6
f 1042/755/6 1043/756/6 1044/757/6
f 1044/757/6 1043/756/6 1045/758/6
f 1044/757/6 1045/758/6 1046/759/6
f 1047/760/6 294/286/6 1048/761/6
f 294/286/6 1047/760/6 295/287/6
f 295/287/6 1047/760/6 297/289/6
f 295/287/6 297/289/6 300/292/6
f 1049/68/6 1050/298/6 1051/65/6
f 1050/298/6 1049/68/6 1052/63/6
f 1050/298/6 1052/63/6 1053/299/6
f 1053/299/6 1052/63/6 1054/62/6
f 1053/299/6 1054/62/6 1055/94/6
f 1055/94/6 1054/62/6 1056/95/6
f 1057/762/6 1058/763/6 1059/764/6
f 1058/763/6 1057/762/6 1060/765/6
f 1058/763/6 1060/765/6 1061/766/6
f 1058/763/6 1061/766/6 1062/767/6
f 1062/767/6 1061/766/6 1063/768/6
f 1063/768/6 1061/766/6 1064/769/6
f 322/314/6 330/322/6 323/315/6
f 330/322/6 322/314/6 1065/317/6
f 330/322/6 1065/317/6 1066/320/6
f 330/322/6 1066/320/6 331/323/6
f 331/323/6 1066/320/6 349/341/6
f 331/323/6 349/341/6 352/344/6
f 1067/770/6 1068/771/6 1069/772/6
f 1068/771/6 1067/770/6 1070/773/6
f 1068/771/6 1070/773/6 1071/774/6
f 1071/774/6 1070/773/6 1072/775/6
f 1071/774/6 1072/775/6 1073/776/6
f 1073/776/6 1072/775/6 1074/777/6
f 1075/778/6 1076/779/6 1077/780/6
f 1076/779/6 1075/778/6 1078/781/6
f 1076/779/6 1078/781/6 1079/782/6
f 1079/782/6 1078/781/6 1080/783/6
f 1079/782/6 1080/783/6 1081/784/6
f 1079/782/6 1081/784/6 1082/785/6
f 379/371/6 423/415/6 422/414/6
f 423/415/6 379/371/6 384/376/6
f 384/376/6 379/371/6 378/370/6
f 384/376/6 378/370/6 381/373/6
f 381/373/6 378/370/6 373/365/6
f 381/373/6 373/365/6 376/368/6
f 302/294/6 336/328/6 303/295/6
f 336/328/6 302/294/6 305/297/6
f 336/328/6 305/297/6 333/325/6
f 333/325/6 305/297/6 308/300/6
f 333/325/6 308/300/6 324/316/6
f 324/316/6 308/300/6 321/313/6
f 350/342/6 358/350/6 351/343/6
f 358/350/6 350/342/6 353/345/6
f 358/350/6 353/345/6 356/348/6
f 358/350/6 356/348/6 359/351/6
f 359/351/6 356/348/6 389/381/6
f 359/351/6 389/381/6 392/384/6
f 409/401/6 407/399/6 406/398/6
f 407/399/6 409/401/6 414/406/6
f 414/406/6 409/401/6 412/404/6
f 414/406/6 412/404/6 415/407/6
f 338/330/6 438/430/6 339/331/6
f 438/430/6 338/330/6 329/321/6
f 438/430/6 329/321/6 439/431/6
f 439/431/6 329/321/6 332/324/6
f 439/431/6 332/324/6 361/353/6
f 439/431/6 361/353/6 364/356/6
f 1083/418/6 432/424/6 1084/419/6
f 432/424/6 1083/418/6 429/421/6
f 429/421/6 1083/418/6 421/413/6
f 429/421/6 421/413/6 424/416/6
f 335/327/6 347/339/6 346/338/6
f 347/339/6 335/327/6 444/436/6
f 444/436/6 335/327/6 441/433/6
f 441/433/6 335/327/6 334/326/6
f 441/433/6 334/326/6 340/332/6
f 340/332/6 334/326/6 337/329/6
f 383/375/6 435/427/6 434/426/6
f 435/427/6 383/375/6 476/468/6
f 476/468/6 383/375/6 382/374/6
f 476/468/6 382/374/6 473/465/6
f 473/465/6 382/374/6 385/377/6
f 473/465/6 385/377/6 388/380/6
f 443/435/6 463/455/6 462/454/6
f 463/455/6 443/435/6 448/440/6
f 448/440/6 443/435/6 442/434/6
f 448/440/6 442/434/6 445/437/6
f 413/405/6 419/411/6 418/410/6
f 419/411/6 413/405/6 490/482/6
f 490/482/6 413/405/6 416/408/6
f 490/482/6 416/408/6 491/483/6
f 1085/786/6 1086/787/6 1087/788/6
f 1086/787/6 1085/786/6 1088/789/6
f 1086/787/6 1088/789/6 1089/790/6
f 1089/790/6 1088/789/6 1090/791/6
f 1089/790/6 1090/791/6 1091/792/6
f 1091/792/6 1090/791/6 1092/793/6
f 393/385/6 391/383/6 390/382/6
f 391/383/6 393/385/6 398/390/6
f 398/390/6 393/385/6 396/388/6
f 398/390/6 396/388/6 399/391/6
f 399/391/6 396/388/6 405/397/6
f 399/391/6 405/397/6 408/400/6
f 314/306/6 344/336/6 315/307/6
f 344/336/6 314/306/6 311/303/6
f 344/336/6 311/303/6 310/302/6
f 344/336/6 310/302/6 341/333/6
f 341/333/6 310/302/6 301/293/6
f 341/333/6 301/293/6 304/296/6
f 319/311/6 375/367/6 374/366/6
f 375/367/6 319/311/6 368/360/6
f 368/360/6 319/311/6 318/310/6
f 368/360/6 318/310/6 365/357/6
f 365/357/6 318/310/6 313/305/6
f 365/357/6 313/305/6 316/308/6
f 475/467/6 503/495/6 502/494/6
f 503/495/6 475/467/6 480/472/6
f 480/472/6 475/467/6 474/466/6
f 480/472/6 474/466/6 477/469/6
f 1093/794/6 1094/795/6 1095/796/6
f 1094/795/6 1093/794/6 1096/797/6
f 1096/797/6 1093/794/6 1097/798/6
f 1096/797/6 1097/798/6 1098/799/6
f 1096/797/6 1098/799/6 1099/800/6
f 1096/797/6 1099/800/6 1100/801/6
f 1096/797/6 1100/801/6 1101/802/6
f 1096/797/6 1101/802/6 1102/803/6
f 1096/797/6 1102/803/6 1103/804/6
f 1096/797/6 1103/804/6 1104/805/6
f 1096/797/6 1104/805/6 1105/806/6
f 1096/797/6 1105/806/6 1106/807/6
f 1096/797/6 1106/807/6 1107/808/6
f 1096/797/6 1107/808/6 1108/809/6
f 1096/797/6 1108/809/6 1109/810/6
f 1096/797/6 1109/810/6 1110/811/6
f 1096/797/6 1110/811/6 1111/812/6
f 1096/797/6 1111/812/6 1112/813/6
f 489/481/6 495/487/6 494/486/6
f 495/487/6 489/481/6 1113/814/6
f 1113/814/6 489/481/6 492/484/6
f 1113/814/6 492/484/6 1114/815/6
f 1115/816/6 1094/795/6 1116/817/6
f 1094/795/6 1115/816/6 1117/818/6
f 1094/795/6 1117/818/6 1095/796/6
f 430/422/6 500/492/6 431/423/6
f 500/492/6 430/422/6 497/489/6
f 497/489/6 430/422/6 433/425/6
f 497/489/6 433/425/6 436/428/6
f 357/349/6 363/355/6 362/354/6
f 363/355/6 357/349/6 450/442/6
f 450/442/6 357/349/6 360/352/6
f 450/442/6 360/352/6 451/443/6
f 451/443/6 360/352/6 401/393/6
f 451/443/6 401/393/6 404/396/6
f 1118/195/6 1119/185/6 1120/188/6
f 1119/185/6 1118/195/6 1121/402/6
f 1121/402/6 1118/195/6 1122/194/6
f 1121/402/6 1122/194/6 1123/403/6
f 1124/819/6 1125/820/6 1126/821/6
f 1125/820/6 1124/819/6 1127/822/6
f 1125/820/6 1127/822/6 1128/823/6
f 1128/823/6 1127/822/6 1129/824/6
f 1128/823/6 1129/824/6 1130/825/6
f 1130/825/6 1129/824/6 1131/826/6
f 397/389/6 403/395/6 402/394/6
f 403/395/6 397/389/6 482/474/6
f 482/474/6 397/389/6 400/392/6
f 482/474/6 400/392/6 483/475/6
f 483/475/6 400/392/6 417/409/6
f 483/475/6 417/409/6 420/412/6
f 367/359/6 387/379/6 386/378/6
f 387/379/6 367/359/6 468/460/6
f 468/460/6 367/359/6 366/358/6
f 468/460/6 366/358/6 465/457/6
f 465/457/6 366/358/6 369/361/6
f 465/457/6 369/361/6 372/364/6
f 343/335/6 371/363/6 370/362/6
f 371/363/6 343/335/6 460/452/6
f 460/452/6 343/335/6 342/334/6
f 460/452/6 342/334/6 457/449/6
f 457/449/6 342/334/6 348/340/6
f 348/340/6 342/334/6 345/337/6
f 437/429/6 447/439/6 446/438/6
f 447/439/6 437/429/6 456/448/6
f 456/448/6 437/429/6 440/432/6
f 456/448/6 440/432/6 453/445/6
f 449/441/6 455/447/6 454/446/6
f 455/447/6 449/441/6 488/480/6
f 488/480/6 449/441/6 452/444/6
f 488/480/6 452/444/6 485/477/6
f 481/473/6 487/479/6 486/478/6
f 487/479/6 481/473/6 496/488/6
f 496/488/6 481/473/6 484/476/6
f 496/488/6 484/476/6 493/485/6
f 1132/827/6 1096/797/6 1112/813/6
f 1096/797/6 1132/827/6 1133/828/6
f 1133/828/6 1132/827/6 1134/829/6
f 467/459/6 479/471/6 478/470/6
f 479/471/6 467/459/6 472/464/6
f 472/464/6 467/459/6 466/458/6
f 472/464/6 466/458/6 469/461/6
f 459/451/6 471/463/6 470/462/6
f 471/463/6 459/451/6 464/456/6
f 464/456/6 459/451/6 458/450/6
f 464/456/6 458/450/6 461/453/6
f 1135/830/6 1136/831/6 1137/832/6
f 1136/831/6 1135/830/6 1138/833/6
f 1136/831/6 1138/833/6 1139/834/6
f 1139/834/6 1138/833/6 1140/835/6
f 1139/834/6 1140/835/6 1141/836/6
f 1139/834/6 1141/836/6 1142/837/6
f 1143/838/6 1144/839/6 1145/840/6
f 1144/839/6 1143/838/6 1146/841/6
f 1144/839/6 1146/841/6 1147/842/6
f 1147/842/6 1146/841/6 1148/843/6
f 1147/842/6 1148/843/6 1149/844/6
f 1149/844/6 1148/843/6 1150/845/6
f 1151/846/6 1152/847/6 1153/848/6
f 1152/847/6 1151/846/6 1154/849/6
f 1152/847/6 1154/849/6 1155/850/6
f 1155/850/6 1154/849/6 1156/851/6
f 1155/850/6 1156/851/6 1157/852/6
f 1157/852/6 1156/851/6 1158/853/6
f 1159/854/6 1160/855/6 1161/856/6
f 1160/855/6 1159/854/6 1162/857/6
f 1162/857/6 1159/854/6 1163/858/6
f 1162/857/6 1163/858/6 1164/859/6
f 1164/859/6 1163/858/6 1165/860/6
f 1164/859/6 1165/860/6 1166/861/6
f 1167/862/6 1168/863/6 1169/864/6
f 1168/863/6 1167/862/6 1170/865/6
f 1170/865/6 1167/862/6 1171/866/6
f 1170/865/6 1171/866/6 1172/867/6
f 1172/867/6 1171/866/6 1173/868/6
f 1172/867/6 1173/868/6 1174/869/6
f 1175/870/6 1176/871/6 1177/872/6
f 1176/871/6 1175/870/6 1178/873/6
f 1178/873/6 1175/870/6 1179/874/6
f 1178/873/6 1179/874/6 1180/875/6
f 1180/875/6 1179/874/6 1181/876/6
f 1180/875/6 1181/876/6 1182/877/6
f 1183/878/6 1184/879/6 1185/880/6
f 1184/879/6 1183/878/6 1186/881/6
f 1184/879/6 1186/881/6 1187/882/6
f 1187/882/6 1186/881/6 1188/883/6
f 1187/882/6 1188/883/6 1189/884/6
f 1189/884/6 1188/883/6 1190/885/6
f 1191/886/6 1192/887/6 1193/888/6
f 1192/887/6 1191/886/6 1194/889/6
f 1194/889/6 1191/886/6 1195/890/6
f 1194/889/6 1195/890/6 1196/891/6
f 1196/891/6 1195/890/6 1197/892/6
f 1196/891/6 1197/892/6 1198/893/6
f 1199/894/6 1200/895/6 1201/896/6
f 1200/895/6 1199/894/6 1202/897/6
f 1200/895/6 1202/897/6 1203/898/6
f 1203/898/6 1202/897/6 1204/899/6
f 1203/898/6 1204/899/6 1205/900/6
f 1205/900/6 1204/899/6 1206/901/6
f 1207/902/6 1208/903/6 1209/904/6
f 1208/903/6 1207/902/6 1210/905/6
f 1210/905/6 1207/902/6 1211/906/6
f 1210/905/6 1211/906/6 1212/907/6
f 1212/907/6 1211/906/6 1213/908/6
f 1212/907/6 1213/908/6 1214/909/6
f 1215/910/6 1216/911/6 1217/912/6
f 1216/911/6 1215/910/6 1218/913/6
f 1216/911/6 1218/913/6 1219/914/6
f 1219/914/6 1218/913/6 1220/915/6
f 1219/914/6 1220/915/6 1221/916/6
f 1221/916/6 1220/915/6 1222/917/6
f 1223/918/6 1224/919/6 1225/920/6
f 1224/919/6 1223/918/6 1226/921/6
f 1226/921/6 1223/918/6 1227/922/6
f 1226/921/6 1227/922/6 1228/923/6
f 1228/923/6 1227/922/6 1229/924/6
f 1228/923/6 1229/924/6 1230/925/6
f 1231/926/6 1232/927/6 1233/928/6
f 1232/927/6 1231/926/6 1234/929/6
f 1232/927/6 1234/929/6 1235/930/6
f 1235/930/6 1234/929/6 1236/931/6
f 1235/930/6 1236/931/6 1237/932/6
f 1237/932/6 1236/931/6 1238/933/6
f 877/598/6 1239/934/6 1240/935/6
f 1239/934/6 877/598/6 1241/936/6
f 1241/936/6 877/598/6 1242/937/6
f 1242/937/6 877/598/6 1243/938/6
f 1243/938/6 877/598/6 1244/939/6
f 1244/939/6 877/598/6 1245/940/6
f 1245/940/6 877/598/6 1246/941/6
f 1246/941/6 877/598/6 1247/942/6
f 1247/942/6 877/598/6 1248/943/6
f 1248/943/6 877/598/6 1249/944/6
f 1249/944/6 877/598/6 1250/945/6
f 1250/945/6 877/598/6 1132/827/6
f 1132/827/6 877/598/6 878/599/6
f 1132/827/6 878/599/6 1134/829/6
f 1251/583/6 1252/816/6 1253/584/6
f 1252/816/6 1251/583/6 1254/818/6
f 1254/818/6 1251/583/6 1255/946/6
f 1254/818/6 1255/946/6 1256/947/6
f 1257/948/6 1258/949/6 1259/950/6
f 1258/949/6 1257/948/6 1260/951/6
f 1258/949/6 1260/951/6 1261/952/6
f 1261/952/6 1260/951/6 1262/953/6
f 1261/952/6 1262/953/6 1263/954/6
f 1263/954/6 1262/953/6 1264/955/6
f 1265/956/6 1266/957/6 1267/958/6
f 1266/957/6 1265/956/6 1268/959/6
f 1266/957/6 1268/959/6 1269/960/6
f 1269/960/6 1268/959/6 1270/961/6
f 1269/960/6 1270/961/6 1271/962/6
f 1271/962/6 1270/961/6 1272/963/6
f 1273/964/6 1274/965/6 1275/966/6
f 1274/965/6 1273/964/6 1276/967/6
f 1274/965/6 1276/967/6 1277/968/6
f 1277/968/6 1276/967/6 1278/969/6
f 1277/968/6 1278/969/6 1279/970/6
f 1279/970/6 1278/969/6 1280/971/6
f 1281/972/6 1282/973/6 1283/974/6
f 1282/973/6 1281/972/6 1284/975/6
f 1284/975/6 1281/972/6 1285/976/6
f 1284/975/6 1285/976/6 1286/977/6
f 1286/977/6 1285/976/6 1287/978/6
f 1286/977/6 1287/978/6 1288/979/6
f 1289/980/6 1290/981/6 1291/982/6
f 1290/981/6 1289/980/6 1292/983/6
f 1292/983/6 1289/980/6 1293/984/6
f 1292/983/6 1293/984/6 1294/985/6
f 1294/985/6 1293/984/6 1295/986/6
f 1294/985/6 1295/986/6 1296/987/6
f 1297/988/6 1298/989/6 1299/990/6
f 1298/989/6 1297/988/6 1300/991/6
f 1300/991/6 1297/988/6 1301/992/6
f 1300/991/6 1301/992/6 1302/993/6
f 1302/993/6 1301/992/6 1303/994/6
f 1302/993/6 1303/994/6 1304/995/6
f 1305/996/6 1306/997/6 1307/998/6
f 1306/997/6 1305/996/6 1308/999/6
f 1308/999/6 1305/996/6 1309/1000/6
f 1308/999/6 1309/1000/6 1310/1001/6
f 1310/1001/6 1309/1000/6 1311/1002/6
f 1310/1001/6 1311/1002/6 1312/1003/6
f 499/491/6 1313/1004/6 1314/1005/6
f 1313/1004/6 499/491/6 498/490/6
f 1313/1004/6 498/490/6 504/496/6
f 504/496/6 498/490/6 501/493/6
f 1315/69/6 1316/77/6 1317/80/6
f 1316/77/6 1315/69/6 1318/304/6
f 1318/304/6 1315/69/6 1319/72/6
f 1318/304/6 1319/72/6 1320/301/6
f 1320/301/6 1319/72/6 1321/67/6
f 1320/301/6 1321/67/6 1322/66/6
